<svg width="134" height="94" viewBox="0 0 134 94" fill="none" xmlns="http://www.w3.org/2000/svg">
<path d="M54.9706 23.3003C55.3013 23.4657 55.6071 23.3932 55.8881 23.0828C58.2235 20.5392 61.3608 16.9833 65.3001 12.4152" stroke="#595858" stroke-width="2"/>
<path d="M65.3002 12.4151C66.5937 11.0955 67.8258 9.72359 68.9965 8.2995C69.1311 8.13708 69.4823 7.78758 70.0501 7.25101C70.451 6.87106 70.7393 6.45631 70.9149 6.00675C70.9702 5.86177 70.9818 5.70552 70.9481 5.55921C70.9143 5.41289 70.8368 5.28359 70.7261 5.18884L66.5952 1.67358" stroke="#595858" stroke-width="2"/>
<path d="M65.3001 12.4148C64.706 12.0729 64.4323 12.2047 64.4791 12.8104C64.481 12.8372 64.4773 12.8642 64.4683 12.8894C64.4592 12.9145 64.445 12.9374 64.4267 12.9564C64.4084 12.9754 64.3863 12.99 64.362 12.9993C64.3377 13.0087 64.3118 13.0124 64.286 13.0104C63.4197 12.9379 63.4812 12.6061 64.4704 12.0149" stroke="#908F90" stroke-width="2"/>
<path d="M64.4705 12.0145C64.3885 11.7276 64.4588 11.574 64.6812 11.5537" stroke="#9E9B9B" stroke-width="2"/>
<path d="M64.681 11.5532C66.0185 10.6281 67.2286 9.57544 68.3115 8.39514C68.4139 8.28542 68.4757 8.15358 68.4871 8.02105C68.5281 7.58605 68.3437 7.6368 67.934 8.1733" stroke="#7B7B7C" stroke-width="2"/>
<path d="M67.9347 8.17328L67.8241 8.13855" stroke="#9E9B9B" stroke-width="2"/>
<path d="M67.8243 8.1382C67.7101 7.61945 67.4599 7.55279 67.0736 7.93823" stroke="#7B7B7C" stroke-width="2"/>
<path d="M67.0736 7.93844L67.056 7.73834" stroke="#9E9B9B" stroke-width="2"/>
<path d="M67.056 7.73747C66.8541 7.09699 67.1043 6.72894 67.8067 6.6333" stroke="#7B7B7C" stroke-width="2"/>
<path d="M67.8068 6.6333C67.8477 6.86805 67.9999 6.9347 68.2633 6.83327" stroke="#9E9B9B" stroke-width="2"/>
<path d="M68.2632 6.83275L68.8339 6.61974C68.8891 6.60001 68.9498 6.59688 69.0088 6.61072C69.0678 6.62456 69.1228 6.65481 69.1675 6.69799C69.2904 6.81681 69.4265 6.85448 69.5758 6.81101C69.7221 6.77044 69.7192 6.71248 69.567 6.63713C69.3094 6.50671 69.1617 6.28791 69.1236 5.98071" stroke="#7B7B7C" stroke-width="2"/>
<path d="M69.1238 5.98061C69.2292 5.56881 69.1165 5.45136 68.7858 5.62826C68.7221 5.66108 68.6526 5.68071 68.5816 5.68595C68.5106 5.69119 68.4397 5.68192 68.3732 5.65871C68.0366 5.53691 67.7527 5.54706 67.5215 5.68916C67.4747 5.71816 67.2845 5.88781 66.9508 6.19811C66.6435 6.48231 66.3128 6.88106 65.9587 7.39436C65.7421 7.70756 65.3983 7.94535 64.9271 8.10775C64.7105 8.18025 64.5539 8.2629 64.4574 8.3557C64.2027 8.6051 64.2261 8.80955 64.5276 8.96905C64.5916 9.00273 64.645 9.04893 64.6816 9.10214C64.7182 9.15534 64.7363 9.21333 64.7339 9.2692C64.7164 9.5505 64.5817 9.7593 64.33 9.8956" stroke="#9E9B9B" stroke-width="2"/>
<path d="M64.3299 9.89531C64.6108 9.25483 64.4513 8.96647 63.8514 9.03023C63.4738 9.0708 63.3509 8.99111 63.4826 8.79114" stroke="#9E9B9B" stroke-width="2"/>
<path d="M63.4826 8.79062C64.5859 8.13855 64.4908 7.96322 63.1973 8.26462" stroke="#9E9B9B" stroke-width="2"/>
<path d="M63.1973 8.26443C62.9075 8.25283 62.9075 8.07013 63.1973 7.71633C63.228 7.68011 63.2696 7.6549 63.3157 7.64466C63.3618 7.63442 63.4097 7.63974 63.4519 7.65978C63.7563 7.80768 63.9011 7.76418 63.8865 7.52928C63.8839 7.48838 63.8602 7.43903 63.8177 7.38629C63.7753 7.33356 63.7157 7.27932 63.645 7.22913C63.4138 7.06963 63.7607 6.80863 64.6855 6.44613C64.7359 6.42629 64.781 6.39512 64.8173 6.35509C64.8535 6.31506 64.8799 6.26724 64.8944 6.21539C64.9089 6.16355 64.911 6.10909 64.9006 6.05629C64.8903 6.00349 64.8677 5.95378 64.8347 5.91108C64.5801 5.58338 64.3533 5.60513 64.1543 5.97633C64.1287 6.02574 64.0861 6.06572 64.0326 6.09068C63.9791 6.11564 63.9172 6.12433 63.8558 6.11553C63.5134 6.06623 63.3304 6.27503 63.307 6.74193" stroke="#9E9B9B" stroke-width="2"/>
<path d="M63.4168 6.97659C63.1154 7.0084 62.8286 6.96646 62.5564 6.85077" stroke="#908F90" stroke-width="2"/>
<path d="M59.7029 11.2188C59.7029 11.4275 59.8126 11.5363 60.0321 11.545" stroke="#7B7B7C" stroke-width="2"/>
<path d="M60.0321 12.1976C59.9209 12.415 60.0248 12.4816 60.3438 12.3976" stroke="#7B7B7C" stroke-width="2"/>
<path d="M60.6906 12.5239C60.4945 12.5993 60.4272 12.7384 60.4887 12.9412" stroke="#7B7B7C" stroke-width="2"/>
<path d="M61.0199 13.7943C61.0966 13.806 61.1275 13.8483 61.1128 13.9212" stroke="#7B7B7C" stroke-width="2"/>
<path d="M61.1121 13.9205L60.7565 14.1248C60.6482 14.1885 60.518 14.2393 60.3658 14.2769C60.0848 14.3436 60.1199 14.5088 60.4711 14.7725" stroke="#9E9B9B" stroke-width="2"/>
<path d="M60.4712 14.7731C60.316 15.2049 60.4199 15.3919 60.7828 15.3339" stroke="#7B7B7C" stroke-width="2"/>
<path d="M60.7828 15.3338C60.894 15.9453 61.0989 16.0743 61.3974 15.7207C61.4413 15.6685 61.5496 15.5497 61.7223 15.3642C61.9769 15.0889 61.9257 14.831 61.5686 14.5905" stroke="#9E9B9B" stroke-width="2"/>
<path d="M61.5686 14.5903C62.2593 14.2481 62.729 13.7348 62.9778 13.0504" stroke="#7B7B7C" stroke-width="2"/>
<path d="M63.1973 8.26471L63.4826 8.79106" stroke="#ACA7A6" stroke-width="2"/>
<path d="M64.33 10.3309C64.3768 10.7775 64.4807 10.85 64.6416 10.5484C65.4084 10.154 65.985 9.63785 66.3713 8.99985C66.7195 8.42565 67.2039 8.13855 67.8243 8.13855" stroke="#898787" stroke-width="2"/>
<path d="M67.934 8.17334L64.681 11.5533" stroke="#898787" stroke-width="2"/>
<path d="M64.4705 12.0149C63.8325 12.2149 63.335 12.5597 62.9779 13.0495" stroke="#9E9B9B" stroke-width="2"/>
<path d="M62.9778 13.0504C62.6968 13.1692 62.4949 13.3619 62.372 13.6285C62.3076 13.7618 62.2447 13.8502 62.1832 13.8937C62.0632 13.9748 61.9462 13.9951 61.832 13.9546C61.7851 13.9374 61.7386 13.898 61.6971 13.8401C61.6556 13.7822 61.6204 13.7079 61.595 13.6242C61.4311 13.0648 61.2394 13.1214 61.0199 13.7937" stroke="#898787" stroke-width="2"/>
<path d="M61.0198 13.7936C60.0423 14.0139 59.8652 13.7299 60.4886 12.9416" stroke="#9E9B9B" stroke-width="2"/>
<path d="M60.4886 12.9406C60.9452 12.587 61.4091 12.2451 61.8803 11.9147C61.9124 11.8915 61.9373 11.8654 61.9549 11.8364C62.0573 11.677 62.0222 11.6423 61.8495 11.7321C61.4339 11.9524 61.0476 12.2161 60.6906 12.5233" stroke="#898787" stroke-width="2"/>
<path d="M60.6907 12.5237C60.5385 12.5497 60.4229 12.5077 60.3439 12.3978" stroke="#9E9B9B" stroke-width="2"/>
<path d="M60.3439 12.3968C60.502 12.0172 60.7595 11.7448 61.1165 11.5796C61.1466 11.5659 61.1742 11.5474 61.1975 11.5253C61.2208 11.5032 61.2395 11.4779 61.2522 11.451C61.265 11.4241 61.2716 11.3961 61.2717 11.3689C61.2717 11.3417 61.2653 11.3157 61.2526 11.2927C61.1648 11.1304 61.0244 11.1825 60.8312 11.4492C60.6117 11.7506 60.3454 11.9998 60.0322 12.1969" stroke="#898787" stroke-width="2"/>
<path d="M60.0322 12.1971C59.7191 12.0058 59.7191 11.7885 60.0322 11.545" stroke="#9E9B9B" stroke-width="2"/>
<path d="M60.0321 11.5448C60.5443 10.7995 60.9189 10.3674 61.1559 10.2485C61.5569 10.0484 61.5349 9.9701 61.0901 10.0136C61.0449 10.0192 61.0009 10.0357 60.9614 10.0621C60.9219 10.0885 60.8878 10.1239 60.8618 10.1659C60.5809 10.6328 60.1946 10.9837 59.7029 11.2186" stroke="#898787" stroke-width="2"/>
<path d="M59.9167 11.3269C59.5801 11.295 59.4396 11.1732 59.4952 10.9615C59.5089 10.9117 59.5426 10.8597 59.5937 10.8098C59.6448 10.7599 59.7118 10.7136 59.7894 10.6744C60.1991 10.4743 60.5298 10.1988 60.7815 9.84791C61.0185 9.52021 61.2102 9.29257 61.3566 9.16497C61.5848 8.97067 61.8131 8.77637 62.0414 8.58207C62.0705 8.55736 62.0865 8.51775 62.0865 8.47057C62.0865 8.42338 62.0705 8.37182 62.0414 8.32542L61.936 8.15142C61.9031 8.10027 61.8976 8.03461 61.9206 7.96866C61.9436 7.90271 61.9933 7.84178 62.0589 7.79907L63.5208 6.85077" stroke="#9E9B9B" stroke-width="2"/>
<path d="M69.1236 5.98071C68.6817 6.10533 68.3949 6.38934 68.2632 6.83275" stroke="#898787" stroke-width="2"/>
<path d="M67.8067 6.63322C67.9969 6.52012 68.1242 6.38237 68.1886 6.21997C68.2501 6.06337 68.1959 6.01552 68.0262 6.07642C67.6223 6.22722 67.2609 6.44617 66.9419 6.73327C66.8482 6.81737 66.6799 7.07112 66.437 7.49452C66.279 7.77292 66.0537 7.99912 65.761 8.17312C65.1347 8.53852 65.1376 8.64582 65.7698 8.49502C65.8668 8.4725 65.9607 8.41298 66.0376 8.32537C66.3068 8.01217 66.6463 7.81642 67.056 7.73812" stroke="#898787" stroke-width="2"/>
<path d="M67.0737 7.93848C66.0874 8.79398 65.4318 9.45517 65.107 9.92207C64.8816 10.2527 64.6226 10.389 64.33 10.331" stroke="#898787" stroke-width="2"/>
<path d="M64.33 10.3309V9.89618" stroke="#ACA7A6" stroke-width="2"/>
<path d="M60.7828 15.3339C61.1457 14.9774 61.0418 14.7905 60.4711 14.7731" stroke="#898787" stroke-width="2"/>
<path d="M61.5687 14.5899L61.1122 13.9205" stroke="#898787" stroke-width="2"/>
<path d="M66.9816 3.82715C67.3269 4.37525 67.7659 4.8349 68.2985 5.2061C68.361 5.24888 68.4312 5.27447 68.499 5.27916C68.5669 5.28385 68.6289 5.2674 68.6761 5.2322C68.8341 5.1075 68.837 4.9219 68.6849 4.6754" stroke="#9E9B9B" stroke-width="2"/>
<path d="M68.6847 4.67442C68.5091 4.12379 68.1403 3.76588 67.5784 3.60068C67.4672 3.56881 67.3692 3.52099 67.2843 3.45723C66.8658 3.12395 66.7648 3.24712 66.9814 3.82673" stroke="#7B7B7C" stroke-width="2"/>
<path d="M68.6849 4.67484L66.9816 3.82715" stroke="#898787" stroke-width="2"/>
<path d="M66.3889 6.22421C66.5352 6.08501 66.5016 6.00816 66.2879 5.99366C66.127 5.98496 66.0406 5.88056 66.0289 5.68046C66.0249 5.6152 66.0024 5.55389 65.9654 5.50761C65.9283 5.46134 65.8792 5.43315 65.827 5.42816C65.4407 5.39626 65.3719 5.59201 65.6206 6.01541C65.6526 6.0686 65.6653 6.13062 65.6565 6.19038C65.6476 6.25015 65.6178 6.30376 65.5724 6.34166C65.2387 6.62876 64.8919 6.90135 64.532 7.15945C64.4237 7.23775 64.3549 7.32186 64.3256 7.41176C64.2788 7.56835 64.3154 7.68435 64.4354 7.75975C64.4931 7.79468 64.5622 7.8085 64.6321 7.79906C64.7019 7.78963 64.7685 7.75747 64.8217 7.70755L66.3889 6.22421Z" stroke="#9E9B9B" stroke-width="2"/>
<path d="M62.5344 10.2137C62.2768 9.75845 62.1759 9.74105 62.2315 10.1615C62.2383 10.2041 62.2568 10.2445 62.2853 10.2788C62.3137 10.3132 62.3512 10.3402 62.3939 10.3573C62.9822 10.598 63.3743 10.8706 63.5704 11.1751C63.9479 11.7609 64.166 11.7551 64.2245 11.1577C64.2269 11.1376 64.2252 11.1172 64.2193 11.0978C64.2135 11.0783 64.2037 11.0603 64.1905 11.0448C64.1773 11.0293 64.1611 11.0167 64.1427 11.0077C64.1244 10.9986 64.1045 10.9934 64.084 10.9924C63.3963 10.9402 63.1841 10.6951 63.4475 10.2572C63.4612 10.2345 63.471 10.2096 63.4762 10.1843C63.4815 10.159 63.482 10.1339 63.4778 10.1107C63.4737 10.0875 63.4649 10.0668 63.452 10.0501C63.4392 10.0333 63.4227 10.0209 63.4036 10.0136L63.2368 9.94405C63.2148 9.93555 63.1912 9.93427 63.168 9.9403C63.1447 9.94634 63.1224 9.95951 63.103 9.97872C63.0836 9.99792 63.0677 10.0226 63.0566 10.0506C63.0455 10.0787 63.0396 10.1092 63.0392 10.1398C63.0422 10.4182 62.9222 10.4921 62.6793 10.3616C62.6207 10.3297 62.5724 10.2804 62.5344 10.2137Z" stroke="#898787" stroke-width="2"/>
<path d="M58.9831 14.2639C58.2221 13.7394 58.2339 13.8365 59.0182 14.5552C59.034 14.5701 59.0524 14.5821 59.0722 14.5903C59.092 14.5985 59.1128 14.6027 59.1332 14.6027C59.1535 14.6027 59.173 14.5985 59.1902 14.5903C59.2075 14.5821 59.2222 14.5701 59.2333 14.5552C59.2947 14.474 59.2757 14.4103 59.1762 14.3639C59.065 14.3117 59.0006 14.2784 58.9831 14.2639Z" stroke="#7B7B7C" stroke-width="2"/>
<path d="M56.0374 20.3369C56.0286 20.5426 56.1267 20.5165 56.3315 20.2586C57.1305 19.2646 57.072 19.211 56.1559 20.0978C56.0828 20.1702 56.0402 20.2561 56.0374 20.3369Z" stroke="#9E9B9B" stroke-width="2"/>
<path d="M88.5139 31.1097L87.4691 31.5404C86.9131 31.7695 86.7301 31.5882 86.9204 30.9965C87.5086 29.1548 87.8818 27.2696 88.0398 25.3408C88.353 21.4746 87.1457 18.3045 84.4181 15.8305C84.4064 15.8189 83.8387 15.3896 82.7148 14.5427C81.673 13.7538 80.8008 12.7981 80.0984 11.6757C79.8936 11.345 79.7443 10.6881 79.6507 9.70485C79.5951 9.12478 79.3712 8.95075 78.979 9.18279C78.8298 9.2727 78.679 9.42932 78.5269 9.65265C76.7358 12.3152 75.8388 15.188 75.8358 18.2711C75.8329 20.1796 76.2485 22.0373 77.0826 23.8442C77.542 24.8419 78.0688 25.6105 78.6629 26.15C79.377 26.7968 80.2228 27.2623 81.2003 27.5465C81.3908 27.602 81.5547 27.724 81.6619 27.8902C81.7692 28.0564 81.8126 28.2557 81.7842 28.4515C81.5061 30.3628 80.773 32.0131 79.5848 33.4024C78.2005 35.0179 76.528 36.2491 74.5672 37.096C74.2423 37.2353 74.1252 37.1903 74.216 36.9612C74.2423 36.8945 74.292 36.8234 74.3652 36.748C75.3749 35.7271 76.187 34.5684 76.8016 33.2719C77.1879 32.454 77.3825 31.6114 77.3855 30.7442C77.3913 30.0452 77.1543 29.2447 76.6743 28.3427C76.2704 27.5886 75.8534 26.8403 75.4232 26.0978C74.8613 25.1262 74.4633 24.3663 74.2291 23.8181C71.8088 18.1305 72.3898 12.7735 75.9719 7.7471C77.087 6.18379 78.5078 5.41954 80.2345 5.45435C81.2442 5.47465 82.6812 5.84735 84.5454 6.57244C86.6175 7.37585 88.5212 8.49104 90.2567 9.91803C90.4235 10.0543 90.5728 10.1399 90.7045 10.1747C91.041 10.2617 91.1508 10.108 91.0337 9.71356C90.9957 9.58594 90.924 9.44237 90.8186 9.28285C88.5681 5.8778 85.3649 3.9563 81.2091 3.51834C80.0736 3.39943 79.8921 3.06008 80.6647 2.50031C80.9955 2.25958 81.7183 1.96954 82.8334 1.6302C83.6148 1.38946 84.3742 1.22704 85.1117 1.14293C90.6108 0.51935 95.5451 1.93619 99.9145 5.39344C103.277 8.05309 105.238 11.4393 105.797 15.552C106.166 18.261 106.091 21.1614 105.573 24.2532C104.839 28.6211 103.058 32.3496 100.231 35.4385C98.34 37.5035 96.0046 39.222 93.2243 40.5939C90.1777 42.0963 86.9087 43.0201 83.4172 43.3652C81.5237 43.5537 79.6551 43.4189 77.8113 42.9606C76.7782 42.7025 76.7782 42.4124 77.8113 42.0905C79.6434 41.5191 81.2764 40.6026 82.7104 39.3409C85.2478 37.1163 87.3199 34.5234 88.9266 31.5621C89.2163 31.0255 89.0788 30.8747 88.5139 31.1097Z" fill="black"/>
<path d="M54.9706 23.3002C55.3013 23.4655 55.6071 23.393 55.8881 23.0827C58.2235 20.5391 61.3608 16.9832 65.3 12.4151C66.5936 11.0954 67.8257 9.72354 68.9964 8.29946C69.131 8.13704 69.4822 7.78754 70.0499 7.25097C70.4509 6.87102 70.7392 6.45626 70.9147 6.00671C70.9701 5.86172 70.9817 5.70548 70.9479 5.55916C70.9142 5.41285 70.8367 5.28355 70.726 5.1888L66.5951 1.67354C66.7297 1.06156 67.0648 0.975998 67.6004 1.41686C69.3007 2.80904 70.865 4.26358 72.2932 5.78048C72.7 6.21263 72.7571 6.68539 72.4644 7.19876C71.8001 8.36181 71.023 9.44221 70.1333 10.4399C65.6205 15.5127 61.1135 20.5913 56.6124 25.6756C56.0359 26.3253 55.7417 26.6632 55.73 26.6893C55.49 27.1099 55.5691 27.5232 55.9671 27.9292C56.3241 28.2947 56.5114 28.4875 56.529 28.5078C60.4887 33.3718 64.4996 38.1908 68.5618 42.9648C68.6004 43.0095 68.6252 43.0624 68.6316 43.1136C68.6381 43.1648 68.6257 43.2108 68.5969 43.2432C68.5354 43.3128 68.4725 43.2824 68.4081 43.1519C68.3496 43.0271 68.2837 42.9329 68.2106 42.8691L53.579 29.6477C53.534 29.6066 53.4756 29.5829 53.4149 29.5813C53.3542 29.5797 53.2955 29.6003 53.2497 29.639C52.4274 30.3148 51.6738 31.0573 50.9889 31.8665C49.9558 33.0846 49.4334 33.701 49.4217 33.7155C46.1439 37.3294 42.8968 40.9679 39.6805 44.6311C39.6366 44.6804 39.5883 44.7152 39.5356 44.7355C39.3161 44.8138 39.3059 44.721 39.5049 44.457C43.4939 39.2103 47.4989 33.9606 51.5201 28.708C51.6307 28.5649 51.6834 28.386 51.668 28.2059C51.6525 28.0258 51.5701 27.8574 51.4367 27.7334C49.8622 26.2804 48.3213 24.8838 46.8141 23.5439C45.5352 22.404 44.3455 21.5948 43.2451 21.1162C41.5448 20.3766 39.7493 19.9097 37.8587 19.7153C36.9163 19.6167 35.9842 19.4674 35.0623 19.2672C34.0234 19.0381 33.1556 18.693 32.4591 18.2318C31.1392 17.3617 30.1076 16.2001 29.3642 14.747C28.4218 12.9111 28.4657 11.1041 29.4959 9.32619C29.8822 8.6562 29.6715 8.2661 28.8638 8.15589C27.9741 8.03407 27.1239 8.15154 26.3132 8.50828C26.0293 8.6359 25.7952 8.68666 25.6108 8.66055C25.1923 8.60255 25.0811 8.36181 25.2772 7.93836C25.3339 7.8173 25.4393 7.71437 25.5757 7.64687C27.2907 6.82026 28.9837 6.91017 30.6548 7.91661C31.0207 8.13704 31.4187 8.25305 31.8489 8.26465C33.1044 8.30236 34.3072 8.59384 35.4574 9.13912C36.3617 9.56837 36.59 9.33779 36.1422 8.44738C35.7618 7.68748 35.5672 6.87392 35.5584 6.00671C35.5525 5.15399 35.7823 4.38394 36.2476 3.69655C37.3568 2.05204 39.0293 1.68949 41.2653 2.60891C44.5665 3.96339 46.3517 6.32285 46.621 9.68729C46.779 11.674 46.8609 12.6805 46.8668 12.7066C47.0424 13.6434 47.3058 14.8007 47.657 16.1783C48.0521 17.7184 48.6432 18.9438 49.4305 19.8546C50.8002 21.4411 52.1786 23.1015 53.5658 24.836C54.0107 25.3899 54.3282 25.3624 54.5184 24.7533L54.9706 23.3002ZM44.7581 11.5516C45.4896 10.8588 45.8042 9.79314 45.6326 8.58898C45.461 7.38481 44.8174 6.14079 43.8433 5.13059C43.361 4.63039 42.812 4.20264 42.2278 3.87178C41.6436 3.54092 41.0355 3.31342 40.4384 3.20227C39.8412 3.09112 39.2666 3.0985 38.7474 3.22398C38.2282 3.34947 37.7746 3.5906 37.4124 3.93362C36.6809 4.62636 36.3664 5.69203 36.538 6.89619C36.7095 8.10035 37.3532 9.34437 38.3273 10.3546C38.8096 10.8548 39.3585 11.2825 39.9428 11.6134C40.527 11.9442 41.135 12.1718 41.7322 12.2829C42.3293 12.394 42.9039 12.3867 43.4231 12.2612C43.9423 12.1357 44.396 11.8946 44.7581 11.5516ZM37.9041 17.6766C38.2627 17.3357 38.5223 16.8993 38.6678 16.3924C38.8133 15.8854 38.842 15.3178 38.7523 14.7219C38.6625 14.126 38.4561 13.5135 38.1447 12.9194C37.8333 12.3254 37.4231 11.7613 36.9375 11.2595C36.4519 10.7576 35.9004 10.3278 35.3145 9.99462C34.7286 9.66142 34.1198 9.43135 33.5228 9.31752C32.9258 9.2037 32.3523 9.20836 31.8351 9.33124C31.3179 9.45412 30.8671 9.69281 30.5085 10.0337C30.1498 10.3745 29.8903 10.8109 29.7448 11.3179C29.5992 11.8249 29.5705 12.3925 29.6603 12.9884C29.75 13.5843 29.9565 14.1967 30.2679 14.7908C30.5792 15.3849 30.9894 15.949 31.475 16.4508C31.9607 16.9527 32.5121 17.3824 33.098 17.7156C33.6839 18.0488 34.2928 18.2789 34.8898 18.3927C35.4867 18.5066 36.0602 18.5019 36.5774 18.379C37.0946 18.2561 37.5454 18.0175 37.9041 17.6766ZM40.7209 17.3921C42.114 18.4653 43.7207 19.1367 45.541 19.4065C45.6083 19.4168 45.6771 19.4108 45.7416 19.3891C45.8061 19.3673 45.8645 19.3304 45.9118 19.2814C45.9591 19.2324 45.9939 19.1727 46.0134 19.1074C46.033 19.0422 46.0366 18.9731 46.0239 18.9061C45.7664 17.6039 45.3932 16.4104 44.9045 15.3256C44.3748 14.151 43.5231 13.4476 42.3496 13.2156C41.6969 13.088 41.1687 12.9299 40.7648 12.7414C40.1941 12.4804 39.6 12.2817 38.9825 12.1454C38.9614 12.1401 38.9394 12.1408 38.9187 12.1475C38.8981 12.1541 38.8794 12.1664 38.8647 12.1832C38.85 12.2 38.8398 12.2206 38.835 12.243C38.8303 12.2654 38.8312 12.2887 38.8376 12.3107L39.9044 16.1218C40.0566 16.6671 40.3287 17.0905 40.7209 17.3921ZM48.6754 21.8602C48.6754 21.6294 48.5829 21.4081 48.4183 21.2449C48.2536 21.0817 48.0303 20.9901 47.7975 20.9901C47.5646 20.9901 47.3413 21.0817 47.1766 21.2449C47.012 21.4081 46.9195 21.6294 46.9195 21.8602C46.9195 22.0909 47.012 22.3123 47.1766 22.4754C47.3413 22.6386 47.5646 22.7303 47.7975 22.7303C48.0303 22.7303 48.2536 22.6386 48.4183 22.4754C48.5829 22.3123 48.6754 22.0909 48.6754 21.8602Z" fill="black"/>
<path d="M66.595 1.67358L70.7259 5.18884C70.8366 5.28359 70.9141 5.41289 70.9479 5.55921C70.9816 5.70552 70.97 5.86177 70.9147 6.00675C70.7391 6.45631 70.4508 6.87106 70.0499 7.25101C69.4821 7.78758 69.1309 8.13708 68.9963 8.2995C67.8256 9.72359 66.5935 11.0955 65.3 12.4151C64.7059 12.0729 64.4322 12.2049 64.4791 12.811C64.481 12.8379 64.4772 12.8648 64.4682 12.89C64.4591 12.9153 64.445 12.9381 64.4266 12.9571C64.4083 12.9761 64.3862 12.9908 64.362 13.0001C64.3377 13.0094 64.3117 13.0132 64.2859 13.0112C63.4196 12.9387 63.4811 12.6066 64.4703 12.0149C64.3883 11.7277 64.4586 11.574 64.681 11.5537C66.0185 10.6285 67.2286 9.57567 68.3115 8.39521C68.4138 8.28547 68.4757 8.15362 68.4871 8.02106C68.528 7.58601 68.3437 7.63677 67.9339 8.17334L67.8242 8.13853C67.71 7.61936 67.4598 7.55265 67.0735 7.9384L67.0559 7.73828C66.854 7.09729 67.1042 6.72895 67.8066 6.63323C67.8476 6.86816 67.9998 6.93487 68.2632 6.83336L68.8339 6.62018C68.8891 6.60044 68.9497 6.59731 69.0088 6.61116C69.0678 6.62501 69.1228 6.65527 69.1675 6.69849C69.2904 6.81741 69.4265 6.85511 69.5758 6.81161C69.7221 6.771 69.7192 6.71299 69.567 6.63758C69.3094 6.50707 69.1616 6.28809 69.1236 5.98065C69.229 5.56879 69.1163 5.45133 68.7856 5.62825C68.7218 5.66107 68.6523 5.68071 68.5813 5.68595C68.5104 5.69119 68.4394 5.68192 68.3729 5.65871C68.0364 5.53689 67.7525 5.54704 67.5213 5.68916C67.4744 5.71816 67.2842 5.88784 66.9506 6.19818C66.6433 6.48241 66.3126 6.88122 65.9585 7.39458C65.7419 7.70782 65.398 7.94565 64.9268 8.10808C64.7103 8.18059 64.5537 8.26325 64.4571 8.35606C64.2025 8.60549 64.2259 8.80997 64.5274 8.96949C64.5913 9.00317 64.6448 9.04937 64.6814 9.10259C64.718 9.15581 64.7361 9.2138 64.7337 9.26968C64.7161 9.55102 64.5815 9.75984 64.3298 9.89616C64.6108 9.25518 64.4513 8.96659 63.8513 9.0304C63.4738 9.071 63.3509 8.99124 63.4826 8.79112C64.5859 8.13853 64.4908 7.96306 63.1972 8.2647C62.9075 8.2531 62.9075 8.07037 63.1972 7.71653C63.2279 7.6803 63.2696 7.65508 63.3156 7.64485C63.3617 7.63461 63.4096 7.63993 63.4518 7.65997C63.7562 7.80789 63.9011 7.76438 63.8864 7.52945C63.8838 7.48854 63.8601 7.43919 63.8177 7.38645C63.7753 7.3337 63.7157 7.27946 63.645 7.22926C63.4138 7.06974 63.7606 6.80871 64.6854 6.44616C64.7358 6.42631 64.781 6.39515 64.8172 6.35511C64.8535 6.31507 64.8799 6.26724 64.8943 6.21539C64.9088 6.16354 64.9109 6.10907 64.9006 6.05627C64.8902 6.00346 64.8677 5.95375 64.8346 5.91104C64.58 5.5833 64.3532 5.60505 64.1542 5.9763C64.1286 6.02571 64.0861 6.0657 64.0325 6.09066C63.979 6.11563 63.9172 6.12432 63.8557 6.11552C63.5133 6.06621 63.3304 6.27504 63.307 6.742C63.0055 6.7739 62.7187 6.73185 62.4465 6.61583L66.595 1.67358ZM66.9813 3.82712C67.3267 4.37529 67.7656 4.835 68.2983 5.20625C68.3607 5.24904 68.4309 5.27462 68.4988 5.27932C68.5666 5.28401 68.6286 5.26756 68.6758 5.23235C68.8339 5.10763 68.8368 4.92201 68.6846 4.67548C68.509 4.1244 68.1403 3.76621 67.5783 3.60089C67.4671 3.56898 67.3691 3.52113 67.2842 3.45732C66.8657 3.12377 66.7647 3.24704 66.9813 3.82712ZM66.3887 6.22428C66.535 6.08506 66.5014 6.0082 66.2877 5.9937C66.1267 5.985 66.0404 5.88058 66.0287 5.68046C66.0247 5.61519 66.0022 5.55387 65.9652 5.50759C65.9281 5.46131 65.879 5.43312 65.8268 5.42813C65.4405 5.39622 65.3717 5.592 65.6204 6.01545C65.6524 6.06865 65.6651 6.13068 65.6562 6.19045C65.6474 6.25022 65.6176 6.30385 65.5722 6.34174C65.2385 6.62888 64.8917 6.90152 64.5317 7.15965C64.4235 7.23796 64.3547 7.32207 64.3254 7.41199C64.2786 7.56861 64.3152 7.68462 64.4352 7.76003C64.4929 7.79496 64.562 7.80878 64.6318 7.79934C64.7017 7.78991 64.7683 7.75774 64.8215 7.70782L66.3887 6.22428Z" fill="#908F90"/>
<path d="M68.6846 4.67448L66.9813 3.8268C66.7647 3.24718 66.8657 3.12401 67.2842 3.45729C67.369 3.52105 67.4671 3.56887 67.5783 3.60075C68.1402 3.76594 68.509 4.12385 68.6846 4.67448Z" fill="#908F90"/>
<path d="M66.9813 3.82721L68.6846 4.67546C68.8368 4.92196 68.8339 5.10756 68.6758 5.23226C68.6286 5.26747 68.5666 5.28391 68.4988 5.27922C68.4309 5.27453 68.3607 5.24894 68.2983 5.20616C67.7657 4.83496 67.3267 4.37531 66.9813 3.82721Z" fill="#908F90"/>
<path d="M66.3886 6.22433L64.8214 7.70768C64.7683 7.75759 64.7016 7.78975 64.6318 7.79918C64.562 7.80862 64.4929 7.7948 64.4351 7.75988C64.3151 7.68448 64.2786 7.56848 64.3254 7.41188C64.3546 7.32198 64.4234 7.23788 64.5317 7.15958C64.8917 6.90148 65.2385 6.62888 65.5721 6.34178C65.6176 6.30389 65.6474 6.25027 65.6562 6.1905C65.6651 6.13074 65.6524 6.06872 65.6204 6.01553C65.3716 5.59213 65.4404 5.39638 65.8267 5.42828C65.879 5.43327 65.9281 5.46146 65.9651 5.50774C66.0022 5.55401 66.0247 5.61532 66.0287 5.68058C66.0404 5.88068 66.1267 5.98508 66.2877 5.99378C66.5013 6.00828 66.535 6.08513 66.3886 6.22433Z" fill="#908F90"/>
<path d="M69.1236 5.98067C68.6817 6.10537 68.3949 6.38957 68.2632 6.83327C67.9998 6.93477 67.8476 6.86807 67.8066 6.63317C67.9968 6.52007 68.1241 6.38232 68.1885 6.21992C68.25 6.06332 68.1959 6.01547 68.0261 6.07637C67.6222 6.22717 67.2608 6.44612 66.9418 6.73322C66.8481 6.81732 66.6799 7.07107 66.437 7.49447C66.2789 7.77287 66.0536 7.99907 65.7609 8.17307C65.1346 8.53847 65.1375 8.64576 65.7697 8.49496C65.8667 8.47245 65.9606 8.41292 66.0375 8.32531C66.3067 8.01212 66.6462 7.81637 67.0559 7.73807L67.0735 7.93817C66.0872 8.79366 65.4317 9.45486 65.1068 9.92176C64.8815 10.2524 64.6225 10.3887 64.3298 10.3307V9.89566C64.5815 9.75936 64.7161 9.55056 64.7337 9.26926C64.7361 9.21339 64.7179 9.15541 64.6814 9.1022C64.6448 9.04899 64.5913 9.0028 64.5273 8.96911C64.2259 8.80961 64.2025 8.60516 64.4571 8.35576C64.5537 8.26296 64.7103 8.18032 64.9268 8.10782C65.398 7.94542 65.7419 7.70762 65.9585 7.39442C66.3126 6.88112 66.6433 6.48237 66.9506 6.19817C67.2842 5.88787 67.4744 5.71822 67.5213 5.68922C67.7525 5.54712 68.0364 5.53697 68.3729 5.65877C68.4394 5.68198 68.5104 5.69125 68.5813 5.68601C68.6523 5.68077 68.7218 5.66114 68.7856 5.62832C69.1163 5.45142 69.2289 5.56887 69.1236 5.98067Z" fill="#908F90"/>
<path d="M63.1973 8.26471L63.4826 8.79113C63.3509 8.99125 63.4739 9.07101 63.8514 9.03041C64.4513 8.9666 64.6108 9.25519 64.3299 9.89617V10.3312C64.3767 10.7779 64.4806 10.8504 64.6416 10.5488C65.4083 10.1543 65.9849 9.63804 66.3712 8.99995C66.7195 8.42568 67.2038 8.13854 67.8243 8.13854L67.934 8.17335L64.6811 11.5537C64.4587 11.574 64.3884 11.7278 64.4704 12.0149C63.8324 12.215 63.3348 12.5602 62.9778 13.0503C62.6968 13.1693 62.4949 13.3621 62.372 13.629C62.3076 13.7624 62.2447 13.8508 62.1832 13.8943C62.0632 13.9756 61.9462 13.9959 61.832 13.9553C61.7851 13.9381 61.7386 13.8987 61.6971 13.8407C61.6556 13.7828 61.6204 13.7084 61.595 13.6246C61.4311 13.0648 61.2394 13.1214 61.0199 13.7943C60.0424 14.0147 59.8653 13.7305 60.4887 12.9416C60.9453 12.5877 61.4091 12.2455 61.8803 11.9148C61.9125 11.8916 61.9374 11.8655 61.9549 11.8365C62.0574 11.677 62.0223 11.6422 61.8496 11.7321C61.434 11.9525 61.0477 12.2165 60.6906 12.5239C60.5385 12.55 60.4229 12.508 60.3438 12.3977C60.5019 12.0178 60.7594 11.7452 61.1165 11.5798C61.1465 11.5661 61.1741 11.5477 61.1974 11.5255C61.2208 11.5034 61.2394 11.478 61.2522 11.4511C61.2649 11.4242 61.2715 11.3962 61.2716 11.369C61.2717 11.3417 61.2652 11.3158 61.2526 11.2927C61.1648 11.1303 61.0243 11.1825 60.8311 11.4493C60.6116 11.751 60.3453 12.0004 60.0322 12.1976C59.719 12.0062 59.719 11.7887 60.0322 11.545C60.5443 10.7996 60.9189 10.3675 61.156 10.2486C61.5569 10.0484 61.535 9.97013 61.0901 10.0136C61.0449 10.0192 61.0009 10.0358 60.9614 10.0621C60.9219 10.0885 60.8879 10.124 60.8619 10.1659C60.5809 10.6329 60.1946 10.9838 59.7029 11.2187C59.3664 11.1868 59.2259 11.065 59.2815 10.8533C59.2951 10.8034 59.3289 10.7515 59.38 10.7016C59.4311 10.6517 59.4981 10.6053 59.5756 10.5662C59.9853 10.366 60.316 10.0905 60.5677 9.73955C60.8048 9.41181 60.9965 9.18413 61.1428 9.05651C61.3711 8.86219 61.5994 8.66786 61.8276 8.47354C61.8567 8.44883 61.8728 8.40921 61.8728 8.36202C61.8728 8.31483 61.8567 8.26326 61.8276 8.21685L61.7223 8.04283C61.6894 7.99168 61.6839 7.92601 61.7069 7.86005C61.7299 7.79409 61.7796 7.73315 61.8452 7.69043L63.307 6.74201C63.3305 6.27505 63.5134 6.06622 63.8558 6.11553C63.9173 6.12433 63.9791 6.11564 64.0326 6.09068C64.0861 6.06571 64.1287 6.02572 64.1543 5.97631C64.3533 5.60506 64.5801 5.58331 64.8347 5.91105C64.8677 5.95376 64.8903 6.00347 64.9007 6.05628C64.911 6.10908 64.9089 6.16355 64.8944 6.2154C64.8799 6.26726 64.8536 6.31508 64.8173 6.35512C64.781 6.39516 64.7359 6.42632 64.6855 6.44617C63.7607 6.80872 63.4139 7.06975 63.6451 7.22927C63.7157 7.27947 63.7753 7.33371 63.8178 7.38646C63.8602 7.4392 63.8839 7.48855 63.8865 7.52946C63.9011 7.76439 63.7563 7.8079 63.4519 7.65998C63.4097 7.63994 63.3618 7.63462 63.3157 7.64486C63.2696 7.6551 63.228 7.68031 63.1973 7.71654C62.9076 8.07038 62.9076 8.25311 63.1973 8.26471ZM62.5344 10.2138C62.2769 9.7584 62.1759 9.741 62.2315 10.1616C62.2383 10.2041 62.2568 10.2446 62.2853 10.2789C62.3137 10.3132 62.3512 10.3402 62.3939 10.3573C62.9822 10.5981 63.3743 10.8707 63.5704 11.1752C63.948 11.7611 64.166 11.7553 64.2245 11.1578C64.227 11.1377 64.2252 11.1173 64.2193 11.0979C64.2135 11.0785 64.2037 11.0605 64.1905 11.045C64.1773 11.0295 64.1611 11.0168 64.1428 11.0078C64.1245 10.9988 64.1045 10.9936 64.084 10.9925C63.3963 10.9403 63.1841 10.6952 63.4475 10.2573C63.4612 10.2345 63.471 10.2096 63.4762 10.1843C63.4815 10.159 63.482 10.1339 63.4779 10.1107C63.4737 10.0875 63.4649 10.0668 63.4521 10.0501C63.4392 10.0333 63.4227 10.0209 63.4036 10.0136L63.2368 9.94403C63.2149 9.93553 63.1913 9.93425 63.168 9.94028C63.1447 9.94632 63.1224 9.9595 63.103 9.9787C63.0837 9.99791 63.0677 10.0226 63.0566 10.0506C63.0455 10.0787 63.0396 10.1093 63.0393 10.1398C63.0422 10.4182 62.9222 10.4922 62.6793 10.3617C62.6207 10.3298 62.5725 10.2805 62.5344 10.2138Z" fill="#908F90"/>
<path d="M67.8067 6.63322C67.1043 6.72892 66.8541 7.09722 67.056 7.73812C66.6463 7.81642 66.3068 8.01217 66.0376 8.32537C65.9607 8.41298 65.8668 8.4725 65.7698 8.49502C65.1376 8.64582 65.1347 8.53852 65.761 8.17312C66.0537 7.99912 66.279 7.77292 66.437 7.49452C66.6799 7.07112 66.8482 6.81737 66.9419 6.73327C67.2609 6.44617 67.6223 6.22722 68.0262 6.07642C68.1959 6.01552 68.2501 6.06337 68.1886 6.21997C68.1242 6.38237 67.9969 6.52012 67.8067 6.63322Z" fill="#908F90"/>
<path d="M69.1234 5.98071C69.1614 6.28791 69.3092 6.50671 69.5667 6.63713C69.7189 6.71248 69.7219 6.77044 69.5755 6.81101C69.4263 6.85448 69.2902 6.81681 69.1673 6.69799C69.1225 6.65481 69.0675 6.62456 69.0085 6.61072C68.9495 6.59688 68.8889 6.60001 68.8336 6.61974L68.2629 6.83275C68.3946 6.38934 68.6814 6.10533 69.1234 5.98071Z" fill="#908F90"/>
<path d="M62.4466 6.61591C62.7188 6.73192 63.0056 6.77398 63.307 6.74207L61.8452 7.6905C61.7796 7.73322 61.7299 7.79416 61.7069 7.86012C61.6838 7.92607 61.6894 7.99174 61.7223 8.04289L61.8276 8.21692C61.8567 8.26332 61.8728 8.31489 61.8728 8.36208C61.8728 8.40928 61.8567 8.44889 61.8276 8.4736C61.5993 8.66792 61.3711 8.86225 61.1428 9.05658C60.9965 9.18419 60.8048 9.41187 60.5677 9.73961C60.316 10.0906 59.9853 10.3661 59.5756 10.5662C59.4981 10.6054 59.431 10.6518 59.3799 10.7016C59.3288 10.7515 59.2951 10.8035 59.2815 10.8534C59.2259 11.0651 59.3663 11.1869 59.7029 11.2188C59.7029 11.4276 59.8126 11.5364 60.0321 11.5451C59.719 11.7887 59.719 12.0063 60.0321 12.1977C59.9209 12.4152 60.0248 12.4819 60.3438 12.3978C60.4228 12.508 60.5384 12.5501 60.6906 12.524C60.4945 12.5994 60.4272 12.7386 60.4887 12.9416C59.8653 13.7305 60.0424 14.0148 61.0199 13.7943C61.096 13.8059 61.1267 13.848 61.1121 13.9205L60.7565 14.125C60.6482 14.1888 60.518 14.2396 60.3658 14.2773C60.0848 14.344 60.1199 14.5093 60.4711 14.7732C60.316 15.2054 60.4199 15.3925 60.7828 15.3344C60.894 15.9464 61.0989 16.0755 61.3974 15.7216C61.4413 15.6694 61.5496 15.5505 61.7223 15.3649C61.9769 15.0894 61.9257 14.8312 61.5686 14.5905C62.2593 14.2483 62.729 13.7349 62.9778 13.0504C63.3348 12.5602 63.8323 12.2151 64.4703 12.015C63.4811 12.6066 63.4197 12.9387 64.286 13.0112C64.3118 13.0133 64.3377 13.0095 64.362 13.0002C64.3863 12.9909 64.4084 12.9762 64.4267 12.9572C64.445 12.9382 64.4592 12.9153 64.4683 12.8901C64.4773 12.8649 64.481 12.838 64.4791 12.8111C64.4323 12.2049 64.7059 12.073 65.3 12.4152C61.3608 16.9833 58.2235 20.5392 55.8881 23.0828C55.6071 23.3932 55.3013 23.4657 54.9706 23.3003L51.0723 19.7285C51.0296 19.6902 51.0048 19.6353 51.0031 19.5753C51.0015 19.5153 51.0231 19.4549 51.0635 19.4066C54.7159 15.0183 58.5103 10.7547 62.4466 6.61591ZM58.9829 14.2642C58.222 13.7392 58.2337 13.8364 59.0181 14.5557C59.0338 14.5706 59.0523 14.5826 59.0721 14.5908C59.0919 14.599 59.1127 14.6033 59.133 14.6033C59.1534 14.6033 59.1729 14.599 59.1901 14.5908C59.2074 14.5826 59.2221 14.5706 59.2332 14.5557C59.2946 14.4745 59.2756 14.4107 59.1761 14.3643C59.0649 14.3121 59.0005 14.2787 58.9829 14.2642ZM56.0373 20.3376C56.0285 20.5435 56.1266 20.5174 56.3314 20.2593C57.1304 19.2645 57.0719 19.2108 56.1558 20.0983C56.0827 20.1708 56.0402 20.2568 56.0373 20.3376Z" fill="#908F90"/>
<path d="M67.8242 8.13862C67.2038 8.13862 66.7194 8.42572 66.3711 8.99992C65.9848 9.63792 65.4083 10.1541 64.6415 10.5485C64.4806 10.8501 64.3767 10.7776 64.3298 10.331C64.6225 10.389 64.8815 10.2527 65.1069 9.92212C65.4317 9.45522 66.0873 8.79402 67.0735 7.93852C67.4598 7.55282 67.7101 7.61952 67.8242 8.13862Z" fill="#908F90"/>
<path d="M64.681 11.5533L67.934 8.17336C68.3437 7.63686 68.5281 7.58611 68.4871 8.02111C68.4757 8.15364 68.4139 8.28548 68.3115 8.39521C67.2286 9.5755 66.0185 10.6282 64.681 11.5533Z" fill="#908F90"/>
<path d="M63.4826 8.79068L63.1973 8.26468C64.4908 7.96328 64.5859 8.13861 63.4826 8.79068Z" fill="#908F90"/>
<path d="M62.6793 10.3618C62.9222 10.4923 63.0422 10.4183 63.0392 10.1399C63.0396 10.1094 63.0455 10.0788 63.0566 10.0507C63.0677 10.0227 63.0836 9.99804 63.103 9.97884C63.1224 9.95964 63.1447 9.94646 63.168 9.94042C63.1912 9.93439 63.2148 9.93567 63.2368 9.94417L63.4036 10.0138C63.4227 10.021 63.4392 10.0334 63.452 10.0502C63.4649 10.067 63.4737 10.0877 63.4778 10.1108C63.482 10.134 63.4815 10.1591 63.4762 10.1844C63.471 10.2097 63.4612 10.2346 63.4475 10.2574C63.1841 10.6953 63.3963 10.9403 64.084 10.9925C64.1045 10.9936 64.1244 10.9988 64.1427 11.0078C64.1611 11.0168 64.1773 11.0295 64.1905 11.045C64.2037 11.0605 64.2135 11.0785 64.2193 11.0979C64.2252 11.1173 64.2269 11.1377 64.2245 11.1578C64.166 11.7552 63.9479 11.761 63.5704 11.1752C63.3743 10.8707 62.9822 10.5981 62.3939 10.3574C62.3512 10.3403 62.3137 10.3133 62.2853 10.279C62.2568 10.2447 62.2383 10.2042 62.2315 10.1617C62.1759 9.74117 62.2768 9.75857 62.5344 10.2139C62.5724 10.2806 62.6207 10.3299 62.6793 10.3618Z" fill="#908F90"/>
<path d="M60.0321 11.5449C59.8126 11.5362 59.7029 11.4275 59.7029 11.2187C60.1946 10.9838 60.5809 10.6329 60.8618 10.166C60.8878 10.1241 60.9219 10.0886 60.9614 10.0622C61.0009 10.0359 61.0449 10.0193 61.0901 10.0137C61.5349 9.97023 61.5569 10.0485 61.1559 10.2486C60.9189 10.3675 60.5443 10.7996 60.0321 11.5449Z" fill="#908F90"/>
<path d="M60.3437 12.3968C60.0247 12.4809 59.9208 12.4142 60.032 12.1969C60.3452 11.9998 60.6115 11.7506 60.831 11.4492C61.0241 11.1825 61.1646 11.1304 61.2524 11.2927C61.265 11.3157 61.2715 11.3417 61.2715 11.3689C61.2714 11.3961 61.2648 11.4241 61.252 11.451C61.2393 11.4779 61.2206 11.5032 61.1973 11.5253C61.1739 11.5474 61.1464 11.5659 61.1163 11.5796C60.7593 11.7448 60.5017 12.0172 60.3437 12.3968Z" fill="#908F90"/>
<path d="M60.4886 12.9405C60.4271 12.7377 60.4944 12.5986 60.6905 12.5232C61.0475 12.216 61.4338 11.9523 61.8494 11.732C62.0221 11.6422 62.0572 11.677 61.9548 11.8364C61.9372 11.8654 61.9124 11.8914 61.8802 11.9146C61.409 12.245 60.9451 12.587 60.4886 12.9405Z" fill="#908F90"/>
<path d="M62.9778 13.0504C62.729 13.7348 62.2593 14.2481 61.5686 14.5903L61.1121 13.9204C61.1267 13.8479 61.096 13.8059 61.0199 13.7943C61.2394 13.1215 61.4311 13.0649 61.595 13.6246C61.6204 13.7083 61.6556 13.7828 61.6971 13.8407C61.7386 13.8986 61.7851 13.9381 61.832 13.9552C61.9462 13.9958 62.0632 13.9755 62.1832 13.8943C62.2447 13.8508 62.3076 13.7624 62.372 13.629C62.4949 13.3622 62.6968 13.1693 62.9778 13.0504Z" fill="#908F90"/>
<path d="M59.1762 14.364C59.2757 14.4103 59.2947 14.4741 59.2333 14.5552C59.2222 14.5702 59.2075 14.5821 59.1902 14.5903C59.173 14.5985 59.1535 14.6028 59.1332 14.6028C59.1128 14.6028 59.092 14.5985 59.0722 14.5903C59.0524 14.5821 59.034 14.5702 59.0182 14.5552C58.2339 13.8365 58.2221 13.7394 58.9831 14.264C59.0006 14.2785 59.065 14.3118 59.1762 14.364Z" fill="#908F90"/>
<path d="M61.1121 13.9205L61.5686 14.5904C61.9257 14.8311 61.9769 15.0892 61.7223 15.3647C61.5496 15.5503 61.4413 15.6692 61.3974 15.7214C61.0989 16.0752 60.894 15.9462 60.7828 15.3343C61.1457 14.9776 61.0418 14.7905 60.4711 14.7731C60.1199 14.5092 60.0848 14.3439 60.3658 14.2772C60.518 14.2395 60.6482 14.1888 60.7565 14.125L61.1121 13.9205Z" fill="#908F90"/>
<path d="M60.4712 14.7733C61.0418 14.7906 61.1457 14.9776 60.7828 15.334C60.4199 15.392 60.316 15.2051 60.4712 14.7733Z" fill="#908F90"/>
<path d="M56.1558 20.0979C57.0718 19.2111 57.1304 19.2647 56.3314 20.2587C56.1266 20.5167 56.0285 20.5427 56.0373 20.337C56.0401 20.2562 56.0827 20.1703 56.1558 20.0979Z" fill="#908F90"/>
<path d="M70.2341 73.4624C70.1532 73.3161 70.0347 73.1941 69.891 73.1092C69.7474 73.0242 69.5839 72.9794 69.4176 72.9795L63.3464 73.0056C63.2779 73.0056 63.2102 73.0213 63.1486 73.0515C63.0869 73.0816 63.033 73.1255 62.9908 73.1796C62.6601 73.6147 62.4815 74.0657 62.4552 74.5326C62.4448 74.7328 62.3583 74.9212 62.214 75.0577C62.0698 75.1942 61.8791 75.268 61.6826 75.2635L58.0565 75.1678C57.9796 75.1664 57.906 75.1517 57.8409 75.1247C57.7757 75.0977 57.7205 75.059 57.679 75.0112C57.4712 74.7792 57.5019 74.5442 57.7712 74.3064C57.8941 74.1991 57.979 74.0874 58.0258 73.9714L66.1515 54.0284C66.4266 53.3526 66.7003 53.3526 66.9724 54.0284L75.3572 74.7066C75.3738 74.7475 75.3808 74.7916 75.3778 74.8354C75.3747 74.8793 75.3616 74.9218 75.3396 74.9597C75.3175 74.9975 75.287 75.0297 75.2505 75.0537C75.214 75.0777 75.1724 75.093 75.1289 75.0982C74.2685 75.1968 73.509 75.2302 72.8505 75.1983C72.8096 75.1954 72.4598 75.2215 71.8013 75.2766C71.3711 75.3114 71.0243 75.1562 70.7609 74.8111C70.6614 74.6834 70.5707 74.4616 70.4888 74.1454C70.4156 73.8641 70.3307 73.6364 70.2341 73.4624ZM64.9311 69.0074C66.1427 69.3061 67.2139 69.2728 68.1445 68.9073C68.2 68.8843 68.2447 68.8412 68.2698 68.7865C68.295 68.7318 68.2989 68.6694 68.2806 68.6115C67.8738 67.3324 67.4334 66.0621 66.9593 64.8004C66.8159 64.4146 66.5905 64.287 66.2832 64.4175C66.2369 64.4377 66.1911 64.4767 66.1492 64.5318C66.1073 64.5869 66.0706 64.6564 66.0418 64.7351L64.6985 68.5245C64.6809 68.5743 64.6731 68.6269 64.6755 68.6791C64.6779 68.7312 64.6905 68.7816 64.7124 68.827C64.7343 68.8725 64.7651 68.912 64.8027 68.9431C64.8404 68.9742 64.8841 68.9961 64.9311 69.0074Z" fill="black"/>
<path d="M40.6681 64.3131C40.1911 63.8085 39.9511 63.8984 39.9481 64.5829L39.8735 74.8546C39.8723 74.9165 39.8493 74.9761 39.8084 75.023C39.7675 75.0699 39.7113 75.1011 39.6496 75.1112C38.3619 75.3346 37.1093 75.365 35.8919 75.2026C35.7992 75.189 35.7145 75.1429 35.6532 75.0726C35.592 75.0024 35.5583 74.9126 35.5582 74.8197C35.5582 68.1547 35.5582 61.5592 35.5582 55.0334C35.5582 54.2242 35.8831 53.8747 36.5328 53.9849C36.8518 54.0429 37.1693 54.2503 37.4854 54.607C39.9642 57.4233 42.4914 60.196 45.0668 62.9253C45.0858 62.9457 45.109 62.962 45.1348 62.9731C45.1606 62.9842 45.1885 62.9899 45.2169 62.9899C45.2452 62.9899 45.2734 62.9842 45.2997 62.9731C45.3259 62.962 45.3498 62.9457 45.3697 62.9253C48.466 59.7755 51.0766 56.9549 53.2013 54.4634C53.6344 53.953 54.1188 53.8268 54.6544 54.0849C54.7123 54.1125 54.7611 54.1573 54.7953 54.2143C54.8295 54.2713 54.8476 54.338 54.8475 54.4069L54.8739 74.7153C54.8739 74.7854 54.859 74.8548 54.8301 74.9195C54.8011 74.9841 54.7587 75.0428 54.7052 75.0922C54.6518 75.1415 54.5883 75.1805 54.5186 75.2069C54.4488 75.2334 54.3741 75.2467 54.2988 75.2461L51.2873 75.2418C51.129 75.2418 50.9771 75.1803 50.8651 75.071C50.7532 74.9617 50.6903 74.8134 50.6903 74.6588L50.7254 64.2609C50.7283 63.7766 50.5571 63.7113 50.2118 64.0651L45.6024 68.7942C45.5557 68.8424 45.4996 68.8806 45.4376 68.9066C45.3755 68.9326 45.3088 68.9458 45.2414 68.9454C45.1741 68.945 45.1075 68.931 45.0458 68.9043C44.984 68.8775 44.9285 68.8386 44.8824 68.7899L40.6681 64.3131Z" fill="black"/>
<path d="M123.001 56.2038C123.961 55.148 125.208 54.5201 126.741 54.32C128.377 54.1053 130.168 54.3765 132.114 55.1335C132.233 55.18 132.33 55.273 132.391 55.3972C132.451 55.5213 132.472 55.6693 132.448 55.8166L132.027 58.4399C132.012 58.5327 131.978 58.6218 131.929 58.7008C131.88 58.7798 131.816 58.8465 131.743 58.8959C131.669 58.9453 131.588 58.9762 131.505 58.9861C131.422 58.996 131.339 58.9848 131.263 58.9533C130.069 58.4486 128.845 58.2645 127.593 58.4008C126.729 58.4936 126.128 58.8286 125.789 59.4058C125.326 60.1889 125.512 61.0068 126.346 61.8595C126.7 62.2191 127.739 62.7543 129.463 63.4649C130.961 64.0826 132.173 65.0514 133.098 66.371C134.309 68.1026 134.301 70.0081 133.071 72.0877C131.798 74.2398 129.877 75.3202 127.307 75.3289C125.233 75.3347 123.194 74.8996 121.192 74.0237C121.135 73.9979 121.086 73.954 121.054 73.898C121.022 73.8419 121.007 73.7764 121.012 73.7104L121.271 70.3083C121.278 70.2165 121.308 70.1276 121.357 70.0498C121.407 69.9719 121.474 69.9078 121.554 69.8635C121.633 69.8191 121.722 69.7959 121.811 69.7961C121.901 69.7963 121.989 69.8198 122.066 69.8645C123.678 70.7985 125.35 71.2393 127.079 71.1871C127.711 71.1668 128.213 71.0638 128.585 70.8782C129.132 70.6027 129.48 70.1821 129.63 69.6166C129.843 68.8074 129.593 68.1809 128.879 67.7371C128.159 67.2876 127.403 66.9163 126.609 66.6234C125.219 66.1071 124.024 65.353 123.023 64.3611C121.946 63.2908 121.369 62.0814 121.293 60.7327C121.197 59.0679 121.766 57.5582 123.001 56.2038Z" fill="black"/>
<path d="M0.254615 54.5113C2.42031 54.3518 4.52893 54.3271 6.58048 54.4374C8.27207 54.5273 9.63733 54.784 10.6763 55.2074C12.0576 55.773 13.218 56.5851 14.1575 57.6437C15.8695 59.5754 16.768 61.7884 16.8529 64.2827C16.9231 66.3507 16.49 68.2635 15.5535 70.0211C14.535 71.9354 13.0176 73.3406 11.0011 74.2368C9.75439 74.7908 8.01452 75.12 5.78152 75.2244C3.96702 75.3056 2.17594 75.3114 0.408262 75.2418C0.298767 75.2384 0.194907 75.1924 0.118696 75.1137C0.0424847 75.0349 -8.82019e-05 74.9295 1.37204e-07 74.8198L0.0263396 54.7506C0.0262623 54.69 0.0497755 54.6317 0.0921382 54.5873C0.134501 54.5429 0.192562 54.5157 0.254615 54.5113ZM11.3304 68.4375C12.5157 66.4855 12.7527 64.5437 12.0415 62.6121C11.5001 61.1358 10.5709 60.0322 9.25394 59.3013C7.89307 58.5472 6.35221 58.3166 4.63136 58.6096C4.57091 58.6207 4.51631 58.6525 4.47702 58.6994C4.43774 58.7463 4.41624 58.8053 4.41626 58.8662V70.6258C4.41614 70.6945 4.43031 70.7626 4.4579 70.8258C4.48549 70.889 4.52594 70.9461 4.5768 70.9937C4.62767 71.0412 4.68789 71.0783 4.75385 71.1025C4.81982 71.1268 4.89015 71.1378 4.9606 71.1348C5.70396 71.1029 6.43123 71.0435 7.14239 70.9565C7.99696 70.855 8.69642 70.6606 9.24077 70.3735C10.1363 69.9036 10.8329 69.2583 11.3304 68.4375Z" fill="black"/>
<path d="M26.0059 62.8383C27.399 62.673 28.8564 62.6817 30.3783 62.8644C30.4397 62.8715 30.4971 62.8988 30.5415 62.9421C30.586 62.9853 30.615 63.0422 30.6241 63.1037C30.7822 64.2493 30.7822 65.395 30.6241 66.5406C30.6156 66.6045 30.5851 66.6632 30.5382 66.7056C30.4913 66.7481 30.4314 66.7714 30.3695 66.7712L25.782 66.7451C25.6345 66.7449 25.4929 66.7987 25.3878 66.8947C25.2826 66.9908 25.2224 67.1214 25.2201 67.2585L25.1675 70.1647C25.1557 70.826 25.4923 71.1551 26.1771 71.1522L31.3924 71.1261C31.5069 71.1262 31.6167 71.1719 31.6981 71.2533C31.7795 71.3348 31.8258 71.4454 31.827 71.5612L31.8577 74.5239C31.8583 74.6089 31.8418 74.6931 31.8092 74.7717C31.7765 74.8503 31.7285 74.9218 31.6677 74.982C31.6069 75.0423 31.5346 75.0901 31.4549 75.1227C31.3753 75.1554 31.2899 75.1722 31.2036 75.1722L21.3482 75.1765C21.2458 75.1765 21.1475 75.1353 21.0751 75.0618C21.0026 74.9884 20.9619 74.8888 20.9619 74.785L20.9883 54.6244C20.9883 54.5667 21.0109 54.5114 21.0513 54.4706C21.0916 54.4298 21.1463 54.4069 21.2034 54.4069L30.9358 54.3808C31.0848 54.3808 31.2278 54.4399 31.3331 54.5452C31.4385 54.6504 31.4977 54.7932 31.4977 54.942V58.0048C31.4977 58.1329 31.4473 58.2557 31.3576 58.3463C31.2678 58.4369 31.1461 58.4877 31.0192 58.4877L25.5801 58.5095C25.4904 58.5105 25.4046 58.5451 25.3408 58.6059C25.2769 58.6668 25.24 58.7492 25.2377 58.8358L25.1587 62.0813C25.147 62.6556 25.4294 62.9079 26.0059 62.8383Z" fill="black"/>
<path d="M83.6717 67.2629C83.5608 67.304 83.4651 67.3803 83.3976 67.4814C83.3302 67.5825 83.2941 67.7036 83.2942 67.8285L83.281 74.7981C83.2811 74.8623 83.2574 74.9241 83.2148 74.9704C83.1723 75.0167 83.1141 75.0438 83.0527 75.046L79.3432 75.1679C79.3146 75.1684 79.2862 75.1629 79.2596 75.1516C79.2331 75.1403 79.2088 75.1234 79.1884 75.1019C79.168 75.0804 79.1517 75.0548 79.1406 75.0265C79.1295 74.9983 79.1238 74.9679 79.1237 74.9373L79.0447 54.7376C79.0436 54.6779 79.0662 54.6201 79.108 54.5762C79.1497 54.5324 79.2073 54.506 79.2686 54.5027C82.1133 54.3025 84.955 54.2967 87.7938 54.4853C88.8942 54.5607 89.7942 54.8159 90.4936 55.251C92.153 56.2893 93.132 57.754 93.4305 59.645C93.6558 61.072 93.4641 62.3844 92.8554 63.5823C92.2115 64.8527 91.1916 65.8286 89.7956 66.5102C89.748 66.5338 89.7057 66.5666 89.6712 66.6067C89.6368 66.6468 89.611 66.6933 89.5954 66.7434C89.5797 66.7935 89.5747 66.8462 89.5804 66.8981C89.5862 66.95 89.6026 67.0001 89.6288 67.0453L93.9529 74.6197C93.9832 74.6727 93.9997 74.7326 94.0008 74.7935C94.0018 74.8544 93.9874 74.9141 93.9589 74.9665C93.9304 75.019 93.8889 75.0624 93.8386 75.0924C93.7882 75.1224 93.7307 75.1379 93.6719 75.1374L89.9054 75.1287C89.8042 75.1286 89.7029 75.0987 89.6119 75.0422C89.5209 74.9856 89.4434 74.9044 89.3874 74.8068C88.2401 72.8084 87.1514 70.7622 86.1213 68.6681C85.8227 68.0648 85.5418 67.6646 85.2784 67.4674C84.8072 67.1106 84.2717 67.0424 83.6717 67.2629ZM87.0519 58.6313C86.1418 58.4544 85.0765 58.4501 83.8561 58.6183C83.7214 58.6372 83.5983 58.7054 83.5095 58.8102C83.4207 58.915 83.3723 59.0493 83.3732 59.1882L83.4083 62.7078C83.4094 62.8138 83.4484 62.9157 83.5179 62.9942C83.5874 63.0727 83.6827 63.1225 83.7858 63.1342C85.0999 63.285 86.2881 63.243 87.3504 63.008C88.085 62.8456 88.5972 62.4772 88.8869 61.903C89.2849 61.117 89.241 60.373 88.7552 59.6711C88.3777 59.1288 87.8099 58.7822 87.0519 58.6313Z" fill="black"/>
<path d="M105.125 58.5356C105.041 58.5379 104.96 58.5732 104.901 58.6342C104.842 58.6951 104.809 58.7768 104.809 58.8619V74.8546C104.809 74.9098 104.798 74.9644 104.778 75.0152C104.757 75.066 104.726 75.1119 104.688 75.1501C104.65 75.1883 104.605 75.2181 104.556 75.2375C104.506 75.257 104.454 75.2659 104.401 75.2635L100.832 75.0982C100.771 75.0949 100.714 75.0677 100.673 75.0224C100.631 74.9771 100.608 74.917 100.608 74.8546L100.533 58.8532C100.532 58.7628 100.496 58.6765 100.432 58.613C100.367 58.5495 100.281 58.5138 100.191 58.5138H95.7484C95.6447 58.5136 95.5451 58.4704 95.4705 58.3932C95.396 58.3161 95.3524 58.2111 95.3489 58.1005L95.2348 55.0464C95.2295 54.9014 95.2768 54.7605 95.3665 54.6545C95.4562 54.5484 95.5809 54.486 95.7133 54.4809C100.29 54.3097 104.942 54.3358 109.669 54.5592C109.731 54.5627 109.789 54.5873 109.834 54.6287C109.879 54.6701 109.907 54.7255 109.915 54.7854C110 55.4757 110.026 56.1689 109.994 56.865C109.994 56.8998 110.013 57.1985 110.051 57.7612C110.092 58.3558 109.754 58.6255 109.037 58.5704C108.545 58.5298 108.286 58.5095 108.26 58.5095C107.168 58.5008 106.123 58.5095 105.125 58.5356Z" fill="black"/>
<path d="M116.728 54.3808H113.304C113.037 54.3808 112.821 54.5951 112.821 54.8594V74.7763C112.821 75.0406 113.037 75.2548 113.304 75.2548H116.728C116.994 75.2548 117.211 75.0406 117.211 74.7763V54.8594C117.211 54.5951 116.994 54.3808 116.728 54.3808Z" fill="black"/>
<path d="M24.5001 86.4445C24.8015 85.2321 24.8659 84.2242 24.6932 83.4208C24.4591 82.339 25.043 81.9213 26.4448 82.1679C26.5696 82.1902 26.6827 82.255 26.7644 82.3511C26.8462 82.4472 26.8915 82.5686 26.8926 82.6943L26.9145 93.3445C26.9156 93.4111 26.8961 93.4759 26.8589 93.5292C26.8217 93.5825 26.7689 93.6215 26.7082 93.6403C26.4624 93.7128 26.2092 93.7375 25.9487 93.7143C25.7614 93.6969 25.5098 93.694 25.1937 93.7056C24.7957 93.723 24.6084 93.5287 24.6318 93.1226C24.6552 92.7601 24.661 92.528 24.6493 92.4265C24.5469 91.5013 24.5542 90.6181 24.6713 89.777C24.6833 89.6918 24.6779 89.6049 24.6552 89.5225C24.6326 89.4401 24.5934 89.3641 24.5403 89.2999C24.4872 89.2357 24.4215 89.1848 24.3478 89.1507C24.2742 89.1166 24.1943 89.1003 24.1138 89.1027L21.4052 89.1679C21.3157 89.1702 21.2307 89.2115 21.1684 89.2831C21.106 89.3547 21.0713 89.4507 21.0716 89.5508C21.0716 90.6558 21.0716 91.6811 21.0716 92.6266C21.0716 92.6498 21.0876 92.8195 21.1198 93.1357C21.1608 93.5852 20.9252 93.7694 20.4131 93.6882C20.2697 93.6679 20.1248 93.6708 19.9785 93.6969C19.6156 93.7578 19.2819 93.6998 18.9776 93.5229C18.9215 93.49 18.875 93.4418 18.8426 93.383C18.8103 93.3243 18.7933 93.257 18.7932 93.1879L18.7668 82.7509C18.7668 82.6176 18.8142 82.4886 18.9008 82.386C18.9875 82.2835 19.1078 82.214 19.241 82.1896C19.9346 82.062 20.476 82.1128 20.8652 82.3419C20.9215 82.3751 20.9681 82.4243 21.0005 82.4846C21.0328 82.5449 21.0497 82.6142 21.0496 82.6856L21.0716 85.9833C21.0731 86.1535 21.1317 86.3178 21.2379 86.449C21.344 86.5803 21.4913 86.6708 21.6554 86.7055C22.4514 86.8737 23.3119 86.8708 24.2367 86.6968C24.2997 86.6849 24.3581 86.6548 24.4048 86.61C24.4515 86.5653 24.4846 86.5078 24.5001 86.4445Z" fill="black"/>
<path d="M42.4109 82.094H40.971C40.7528 82.094 40.5759 82.2693 40.5759 82.4855V93.3097C40.5759 93.526 40.7528 93.7013 40.971 93.7013H42.4109C42.6291 93.7013 42.806 93.526 42.806 93.3097V82.4855C42.806 82.2693 42.6291 82.094 42.4109 82.094Z" fill="black"/>
<path d="M47.7359 89.5378C47.6276 90.405 47.6145 91.2751 47.6964 92.1481C47.7081 92.2583 47.692 92.3642 47.6481 92.4657C47.6276 92.5179 47.6072 92.5687 47.5867 92.618C47.5469 92.7136 47.5422 92.8241 47.5735 92.9312C47.752 93.5229 47.5135 93.7738 46.8579 93.6839C46.7116 93.6636 46.5697 93.6708 46.4321 93.7056C45.5337 93.9348 45.1122 93.6085 45.1678 92.7268C45.2 92.2279 45.2161 91.9683 45.2161 91.948C45.2044 88.7547 45.2132 85.5817 45.2425 82.429C45.2434 82.3445 45.2765 82.2635 45.3351 82.2022C45.3937 82.1409 45.4735 82.1038 45.5585 82.0983C46.8345 82.0171 48.0769 82.0171 49.2856 82.0983C50.386 82.1766 51.2201 82.3942 51.7878 82.7509C52.6278 83.2817 53.1282 84.0532 53.2892 85.0654C53.4092 85.8137 53.2892 86.504 52.9292 87.1363C52.6102 87.6989 52.1405 88.2631 51.52 88.8286C51.4219 88.9186 51.3564 89.038 51.3334 89.1684C51.3104 89.2989 51.3312 89.4333 51.3927 89.5508C51.8288 90.3746 52.278 91.1591 52.7404 91.9045C52.7873 91.9799 52.8765 92.1945 53.0082 92.5484C53.096 92.7833 53.2438 92.9747 53.4516 93.1227C53.523 93.1727 53.5816 93.231 53.62 93.2899C53.6583 93.3488 53.6746 93.4057 53.6667 93.4533C53.6433 93.5751 53.5423 93.6476 53.3638 93.6708C52.8546 93.7404 52.1595 93.7303 51.2786 93.6404C51.2126 93.6338 51.1491 93.6105 51.0939 93.5725C51.0387 93.5344 50.9935 93.483 50.9625 93.4229C50.3216 92.1728 49.669 90.9271 49.0046 89.6857C48.7646 89.2391 48.4193 89.0897 47.9686 89.2376C47.908 89.2583 47.8541 89.2974 47.813 89.3504C47.7719 89.4034 47.7452 89.4683 47.7359 89.5378ZM50.7399 85.1961C50.746 85.0127 50.6784 84.8345 50.5519 84.7005C50.4254 84.5666 50.2504 84.4879 50.0654 84.4818L48.2928 84.4235C48.2012 84.4205 48.1099 84.4354 48.0241 84.4674C47.9383 84.4993 47.8597 84.5477 47.7927 84.6098C47.7258 84.6719 47.6719 84.7464 47.634 84.8291C47.5961 84.9119 47.5751 85.0012 47.5721 85.092L47.5328 86.266C47.5266 86.4493 47.5942 86.6276 47.7207 86.7616C47.8472 86.8955 48.0222 86.9742 48.2072 86.9803L49.9798 87.0386C50.0714 87.0416 50.1627 87.0267 50.2485 86.9947C50.3343 86.9628 50.413 86.9144 50.4799 86.8523C50.5468 86.7902 50.6008 86.7157 50.6386 86.6329C50.6765 86.5502 50.6975 86.4609 50.7006 86.3701L50.7399 85.1961Z" fill="black"/>
<path d="M57.846 86.2313C58.3435 86.5214 58.9215 86.8244 59.58 87.1406C60.2327 87.4567 60.796 87.8671 61.2701 88.3718C61.7384 88.8765 61.9725 89.4884 61.9725 90.2077C61.9754 92.6122 60.5517 93.7665 57.7011 93.6708C56.7266 93.6389 55.9291 93.4431 55.3086 93.0835C55.1841 93.0106 55.0905 92.8962 55.0452 92.7615C54.8228 92.0944 54.8594 91.5651 55.155 91.1736C55.2529 91.0418 55.3936 90.9474 55.5535 90.9062C55.7133 90.865 55.8826 90.8795 56.033 90.9473C57.505 91.6057 58.6625 91.5724 59.5054 90.8473C59.5883 90.7764 59.645 90.6802 59.6665 90.5738C59.6879 90.4674 59.673 90.3569 59.6239 90.2599C59.2874 89.5813 58.9127 89.1839 58.5001 89.0679C57.3733 88.7488 56.4749 88.1644 55.8047 87.3146C55.3394 86.7258 55.1564 86.0326 55.2559 85.235C55.5779 82.6276 57.3177 81.6386 60.4756 82.268C61.055 82.384 61.3009 82.7059 61.2131 83.2338L61.0331 84.304C61.0205 84.3805 60.9879 84.4521 60.9384 84.5122C60.8889 84.5724 60.824 84.6191 60.7497 84.6481C60.6754 84.6772 60.594 84.6876 60.5131 84.6784C60.4322 84.6692 60.3544 84.6407 60.2868 84.5955C59.3005 83.9371 58.4182 84.027 57.6397 84.8652C57.1422 85.4047 57.2109 85.8601 57.846 86.2313Z" fill="black"/>
<path d="M68.5002 84.8609L68.5046 92.8398C68.5049 92.9899 68.4571 93.1353 68.3688 93.2527C68.2805 93.3701 68.1568 93.453 68.0173 93.488C66.6828 93.8187 66.0433 93.5808 66.0989 92.7745C66.134 92.2293 66.1501 91.9378 66.1472 91.9001C66.0096 89.6175 66.0155 87.3363 66.1648 85.0566C66.1689 84.984 66.1579 84.9131 66.1327 84.8496C66.1076 84.7862 66.0689 84.7319 66.0199 84.6912C65.5429 84.2967 64.9912 84.1546 64.3649 84.2648C63.9639 84.3373 63.6903 84.3489 63.544 84.2996C63.1781 84.1778 63.0245 83.9023 63.083 83.473C63.124 83.1888 63.1489 82.9118 63.1577 82.6421C63.1723 82.1954 63.3815 82.0112 63.7854 82.0895C64.1161 82.1534 64.3459 82.1824 64.4746 82.1766C66.6901 82.0518 68.9055 82.0678 71.121 82.2244C71.1795 82.2286 71.2364 82.2453 71.2878 82.2733C71.3392 82.3013 71.3839 82.3399 71.4189 82.3866C71.4539 82.4332 71.4783 82.4868 71.4906 82.5436C71.5028 82.6005 71.5025 82.6593 71.4897 82.716L71.2527 83.8037C71.1327 84.346 70.8005 84.5549 70.2562 84.4302C69.6796 84.2967 69.1616 84.3344 68.7021 84.5433C68.6417 84.572 68.5907 84.617 68.5549 84.6732C68.5192 84.7294 68.5002 84.7944 68.5002 84.8609Z" fill="black"/>
<path d="M76.4812 85.3221C76.8177 85.9253 77.1631 85.9195 77.5172 85.3047L79.1195 82.5116C79.1876 82.3961 79.3007 82.304 79.44 82.2506C80.1921 81.9634 80.9355 81.962 81.67 82.2462C81.6959 82.2564 81.7192 82.2721 81.7383 82.2923C81.7575 82.3125 81.7721 82.3367 81.7812 82.3634C81.7903 82.3901 81.7938 82.4187 81.7912 82.4472C81.7887 82.4757 81.7803 82.5036 81.7666 82.529C80.9559 84.0517 80.0414 85.5135 79.0229 86.9144C78.7273 87.3146 78.4859 87.741 78.2986 88.1934C78.1376 88.5821 78.0703 89.0563 78.0966 89.6161C78.1464 90.6718 78.164 91.729 78.1493 92.7876C78.1435 93.1589 78.0557 93.4112 77.8859 93.5446C77.7015 93.6926 77.4542 93.7419 77.144 93.6926C77.0065 93.6694 76.8675 93.6737 76.727 93.7056C76.1914 93.8274 75.909 93.5896 75.8797 92.9921C75.8241 91.7624 75.7802 90.534 75.748 89.3072C75.7305 88.7126 75.571 88.1673 75.2695 87.6714C74.2364 85.9776 73.1843 84.2968 72.1132 82.6291C72.0974 82.6051 72.0868 82.5781 72.082 82.5499C72.0772 82.5217 72.0784 82.493 72.0854 82.4655C72.0924 82.438 72.1052 82.4124 72.1228 82.3904C72.1405 82.3683 72.1626 82.3503 72.1878 82.3376C72.817 82.0214 73.436 81.9649 74.0447 82.1679C74.4896 82.3187 74.9037 82.7016 75.2871 83.3165C75.7524 84.0647 76.1504 84.7333 76.4812 85.3221Z" fill="black"/>
<path d="M86.2881 91.3694C87.6285 91.5753 88.5343 91.6087 89.0055 91.4694C89.4913 91.3244 89.7079 91.4912 89.6552 91.9698C89.6171 92.3207 89.6274 92.6688 89.6859 93.0139C89.7737 93.5418 89.5908 93.7796 89.1372 93.7274C88.8006 93.6897 88.6177 93.6708 88.5884 93.6708C86.9788 93.6534 85.3706 93.636 83.7639 93.6186C83.7357 93.6186 83.7077 93.6131 83.6816 93.6024C83.6555 93.5917 83.6318 93.576 83.6118 93.5562C83.5919 93.5364 83.576 93.5129 83.5652 93.487C83.5544 93.4612 83.5488 93.4334 83.5488 93.4054L83.6542 82.6856C83.6556 82.6137 83.6722 82.5441 83.7026 82.4823C83.7331 82.4204 83.7766 82.3679 83.8298 82.3289C84.4561 81.8735 85.0897 81.875 85.7306 82.3332C85.7865 82.3726 85.8323 82.4254 85.8643 82.4874C85.8964 82.5494 85.9137 82.6188 85.915 82.69L86.073 91.117C86.074 91.1778 86.0961 91.2363 86.1354 91.2824C86.1746 91.3284 86.2287 91.3592 86.2881 91.3694Z" fill="black"/>
<path d="M93.7556 82.0113H92.263C92.0399 82.0113 91.8591 82.1905 91.8591 82.4115V93.3141C91.8591 93.5351 92.0399 93.7143 92.263 93.7143H93.7556C93.9786 93.7143 94.1594 93.5351 94.1594 93.3141V82.4115C94.1594 82.1905 93.9786 82.0113 93.7556 82.0113Z" fill="black"/>
<path d="M100.2 91.1736C101.423 90.6168 101.233 89.9221 99.6291 89.0897C99.1989 88.8664 98.7701 88.6402 98.3428 88.411C97.8131 88.1297 97.4224 87.8513 97.1707 87.5757C96.5356 86.8767 96.2562 86.0733 96.3322 85.1655C96.3996 84.3476 96.7464 83.6443 97.3727 83.0555C98.514 81.9736 100.027 81.7532 101.912 82.3942C102.041 82.4383 102.156 82.5186 102.241 82.6258C102.327 82.7329 102.38 82.8623 102.395 82.9989C102.529 84.2664 102.127 84.7682 101.187 84.5042C100.444 84.2954 100.07 84.191 100.064 84.191C99.4462 84.1591 99.013 84.4332 98.7643 85.0132C98.5009 85.631 98.675 86.0864 99.2867 86.3793C100.118 86.7796 100.921 87.2219 101.697 87.7062C102.592 88.266 103.104 89.0245 103.233 89.9816C103.315 90.5965 103.211 91.1896 102.922 91.761C102.623 92.3526 102.196 92.8167 101.64 93.1531C100.958 93.5679 100.112 93.7419 99.1023 93.6752C98.2448 93.6201 97.3492 93.4171 96.4157 93.0661C96.3089 93.0266 96.2193 92.954 96.1636 92.862C96.1078 92.7699 96.0898 92.6647 96.1128 92.5658L96.4991 90.9083C96.5049 90.8831 96.5172 90.86 96.535 90.8406C96.5529 90.8212 96.5758 90.806 96.6023 90.796C96.6287 90.786 96.658 90.7815 96.688 90.7829C96.7179 90.7842 96.7479 90.7914 96.7756 90.8038C97.3814 91.0939 98.0121 91.2853 98.6677 91.3781C99.2179 91.4564 99.7286 91.3883 100.2 91.1736Z" fill="black"/>
<path d="M29.1579 93.6708C29.1148 93.6722 29.0723 93.6624 29.0342 93.6422C28.9962 93.6219 28.9637 93.5919 28.9397 93.5548C28.9158 93.5177 28.9011 93.4746 28.897 93.4296C28.893 93.3845 28.8996 93.3388 28.9164 93.2966L33.3415 82.4071C33.6019 81.7662 33.8609 81.7618 34.1185 82.3941L38.5523 93.2183C38.5752 93.2746 38.5756 93.3373 38.5534 93.3927C38.5312 93.4481 38.4882 93.4917 38.4338 93.5142C37.2807 93.9898 36.3881 93.7433 35.7559 92.7746C35.7161 92.7132 35.6656 92.6612 35.6081 92.6222C35.5505 92.5831 35.4871 92.5579 35.4223 92.5483C34.3336 92.3859 33.2449 92.3787 32.1562 92.5266C32.0756 92.5374 32.0013 92.5607 31.9388 92.5947C31.8764 92.6286 31.8276 92.6723 31.7962 92.7224L31.3923 93.3662C31.3498 93.4334 31.2994 93.4897 31.2462 93.5294C31.193 93.5691 31.139 93.5909 31.0894 93.5925L29.1579 93.6708ZM33.899 88.0324C33.6268 87.7511 33.4395 87.7975 33.3371 88.1717C33.2171 88.6154 33.0576 89.0374 32.8586 89.4377C32.5718 90.009 32.9508 90.2976 33.9956 90.3034C34.1711 90.3036 34.3398 90.2364 34.466 90.1163C34.5922 89.9961 34.6659 89.8323 34.6716 89.6595C34.6892 89.1288 34.4316 88.5864 33.899 88.0324Z" fill="black"/>
<path d="M104.998 84.3432C104.858 84.3085 104.731 84.2333 104.635 84.1272C104.538 84.0211 104.475 83.8888 104.454 83.7472C104.316 82.8394 104.471 82.3028 104.919 82.1375C104.948 82.1288 105.389 82.1172 106.24 82.1027C108.178 82.0708 110.114 82.107 112.048 82.2115C112.12 82.2153 112.189 82.2352 112.249 82.2693C112.31 82.3033 112.36 82.3507 112.395 82.4072C112.831 83.1091 112.783 83.6819 112.25 84.1257C112.037 84.3055 111.731 84.394 111.333 84.3911C110.92 84.3882 110.586 84.3925 110.332 84.4041C110.145 84.4131 109.968 84.4931 109.839 84.6276C109.71 84.7621 109.638 84.9407 109.638 85.1263C109.638 87.641 109.638 89.9468 109.638 92.0437C109.638 92.0698 109.654 92.2656 109.687 92.6311C109.76 93.5099 109.103 93.8057 107.715 93.5186C107.585 93.4914 107.469 93.4193 107.385 93.3146C107.302 93.2099 107.258 93.0791 107.259 92.9443L107.325 84.9828C107.331 84.3592 107.025 84.133 106.407 84.3041C105.919 84.4404 105.449 84.4534 104.998 84.3432Z" fill="black"/>
<line y1="-0.25" x2="4.64818" y2="-0.25" transform="matrix(0.755506 0.655142 -0.661858 0.749629 51.5814 18.5974)" stroke="url(#paint0_linear_4_76)" stroke-width="0.5"/>
<line y1="-0.25" x2="5.26499" y2="-0.25" transform="matrix(0.75037 0.661018 -0.6677 0.74443 55.5325 13.3767)" stroke="url(#paint1_linear_4_76)" stroke-width="0.5"/>
<line y1="-0.25" x2="5.26499" y2="-0.25" transform="matrix(0.75037 0.661018 -0.6677 0.74443 59.4834 8.15601)" stroke="url(#paint2_linear_4_76)" stroke-width="0.5"/>
<line y1="-0.25" x2="5.26499" y2="-0.25" transform="matrix(0.75037 0.661018 -0.6677 0.74443 52.0205 17.7273)" stroke="url(#paint3_linear_4_76)" stroke-width="0.5"/>
<line y1="-0.25" x2="5.26499" y2="-0.25" transform="matrix(0.75037 0.661018 -0.6677 0.74443 56.4105 12.9417)" stroke="url(#paint4_linear_4_76)" stroke-width="0.5"/>
<line y1="-0.25" x2="5.26499" y2="-0.25" transform="matrix(0.75037 0.661018 -0.6677 0.74443 60.3613 7.72095)" stroke="url(#paint5_linear_4_76)" stroke-width="0.5"/>
<line y1="-0.25" x2="5.26499" y2="-0.25" transform="matrix(0.75037 0.661018 -0.6677 0.74443 52.4596 16.8571)" stroke="url(#paint6_linear_4_76)" stroke-width="0.5"/>
<line y1="-0.25" x2="5.26499" y2="-0.25" transform="matrix(0.75037 0.661018 -0.6677 0.74443 56.8494 12.0715)" stroke="url(#paint7_linear_4_76)" stroke-width="0.5"/>
<line y1="-0.25" x2="5.26499" y2="-0.25" transform="matrix(0.75037 0.661018 -0.6677 0.74443 60.8004 6.85089)" stroke="url(#paint8_linear_4_76)" stroke-width="0.5"/>
<line y1="-0.25" x2="5.26499" y2="-0.25" transform="matrix(0.75037 0.661018 -0.6677 0.74443 53.3374 16.4221)" stroke="url(#paint9_linear_4_76)" stroke-width="0.5"/>
<line y1="-0.25" x2="5.26499" y2="-0.25" transform="matrix(0.75037 0.661018 -0.6677 0.74443 57.7275 11.6365)" stroke="url(#paint10_linear_4_76)" stroke-width="0.5"/>
<line y1="-0.25" x2="5.26499" y2="-0.25" transform="matrix(0.75037 0.661018 -0.6677 0.74443 61.6782 6.41577)" stroke="url(#paint11_linear_4_76)" stroke-width="0.5"/>
<line y1="-0.25" x2="5.26499" y2="-0.25" transform="matrix(0.75037 0.661018 -0.6677 0.74443 53.7764 15.552)" stroke="url(#paint12_linear_4_76)" stroke-width="0.5"/>
<line y1="-0.25" x2="5.26499" y2="-0.25" transform="matrix(0.75037 0.661018 -0.6677 0.74443 58.1664 10.7663)" stroke="url(#paint13_linear_4_76)" stroke-width="0.5"/>
<line y1="-0.25" x2="5.26499" y2="-0.25" transform="matrix(0.75037 0.661018 -0.6677 0.74443 62.1173 5.54565)" stroke="url(#paint14_linear_4_76)" stroke-width="0.5"/>
<line y1="-0.25" x2="5.26499" y2="-0.25" transform="matrix(0.75037 0.661018 -0.6677 0.74443 64.3124 3.80542)" stroke="url(#paint15_linear_4_76)" stroke-width="0.5"/>
<line y1="-0.25" x2="5.26499" y2="-0.25" transform="matrix(0.75037 0.661018 -0.6677 0.74443 54.6544 15.1169)" stroke="url(#paint16_linear_4_76)" stroke-width="0.5"/>
<line y1="-0.25" x2="5.26499" y2="-0.25" transform="matrix(0.75037 0.661018 -0.6677 0.74443 58.6053 9.89624)" stroke="url(#paint17_linear_4_76)" stroke-width="0.5"/>
<line y1="-0.25" x2="5.26499" y2="-0.25" transform="matrix(0.75037 0.661018 -0.6677 0.74443 62.5564 4.6756)" stroke="url(#paint18_linear_4_76)" stroke-width="0.5"/>
<line y1="-0.25" x2="5.26499" y2="-0.25" transform="matrix(0.75037 0.661018 -0.6677 0.74443 64.7513 2.93536)" stroke="url(#paint19_linear_4_76)" stroke-width="0.5"/>
<line y1="-0.25" x2="5.26499" y2="-0.25" transform="matrix(0.75037 0.661018 -0.6677 0.74443 55.0934 14.2468)" stroke="url(#paint20_linear_4_76)" stroke-width="0.5"/>
<line y1="-0.25" x2="5.26499" y2="-0.25" transform="matrix(0.75037 0.661018 -0.6677 0.74443 59.4834 9.46118)" stroke="url(#paint21_linear_4_76)" stroke-width="0.5"/>
<line y1="-0.25" x2="5.26499" y2="-0.25" transform="matrix(0.75037 0.661018 -0.6677 0.74443 63.4343 4.24048)" stroke="url(#paint22_linear_4_76)" stroke-width="0.5"/>
<line y1="-0.25" x2="5.26499" y2="-0.25" transform="matrix(0.750414 0.660968 -0.667749 0.744386 65.6292 2.50006)" stroke="url(#paint23_linear_4_76)" stroke-width="0.5"/>
<defs>
<linearGradient id="paint0_linear_4_76" x1="2.32409" y1="0" x2="2.32409" y2="1" gradientUnits="userSpaceOnUse">
<stop stop-color="#FFE4E4"/>
<stop offset="1" stop-color="white" stop-opacity="0"/>
</linearGradient>
<linearGradient id="paint1_linear_4_76" x1="2.63249" y1="0" x2="2.63249" y2="1" gradientUnits="userSpaceOnUse">
<stop stop-color="#FFE4E4"/>
<stop offset="1" stop-color="white" stop-opacity="0"/>
</linearGradient>
<linearGradient id="paint2_linear_4_76" x1="2.63249" y1="0" x2="2.63249" y2="1" gradientUnits="userSpaceOnUse">
<stop stop-color="#FFE4E4"/>
<stop offset="1" stop-color="white" stop-opacity="0"/>
</linearGradient>
<linearGradient id="paint3_linear_4_76" x1="2.63249" y1="0" x2="2.63249" y2="1" gradientUnits="userSpaceOnUse">
<stop stop-color="#FFE4E4"/>
<stop offset="1" stop-color="white" stop-opacity="0"/>
</linearGradient>
<linearGradient id="paint4_linear_4_76" x1="2.63249" y1="0" x2="2.63249" y2="1" gradientUnits="userSpaceOnUse">
<stop stop-color="#FFE4E4"/>
<stop offset="1" stop-color="white" stop-opacity="0"/>
</linearGradient>
<linearGradient id="paint5_linear_4_76" x1="2.63249" y1="0" x2="2.63249" y2="1" gradientUnits="userSpaceOnUse">
<stop stop-color="#FFE4E4"/>
<stop offset="1" stop-color="white" stop-opacity="0"/>
</linearGradient>
<linearGradient id="paint6_linear_4_76" x1="2.63249" y1="0" x2="2.63249" y2="1" gradientUnits="userSpaceOnUse">
<stop stop-color="#FFE4E4"/>
<stop offset="1" stop-color="white" stop-opacity="0"/>
</linearGradient>
<linearGradient id="paint7_linear_4_76" x1="2.63249" y1="0" x2="2.63249" y2="1" gradientUnits="userSpaceOnUse">
<stop stop-color="#FFE4E4"/>
<stop offset="1" stop-color="white" stop-opacity="0"/>
</linearGradient>
<linearGradient id="paint8_linear_4_76" x1="2.63249" y1="0" x2="2.63249" y2="1" gradientUnits="userSpaceOnUse">
<stop stop-color="#FFE4E4"/>
<stop offset="1" stop-color="white" stop-opacity="0"/>
</linearGradient>
<linearGradient id="paint9_linear_4_76" x1="2.63249" y1="0" x2="2.63249" y2="1" gradientUnits="userSpaceOnUse">
<stop stop-color="#FFE4E4"/>
<stop offset="1" stop-color="white" stop-opacity="0"/>
</linearGradient>
<linearGradient id="paint10_linear_4_76" x1="2.63249" y1="0" x2="2.63249" y2="1" gradientUnits="userSpaceOnUse">
<stop stop-color="#FFE4E4"/>
<stop offset="1" stop-color="white" stop-opacity="0"/>
</linearGradient>
<linearGradient id="paint11_linear_4_76" x1="2.63249" y1="0" x2="2.63249" y2="1" gradientUnits="userSpaceOnUse">
<stop stop-color="#FFE4E4"/>
<stop offset="1" stop-color="white" stop-opacity="0"/>
</linearGradient>
<linearGradient id="paint12_linear_4_76" x1="2.63249" y1="0" x2="2.63249" y2="1" gradientUnits="userSpaceOnUse">
<stop stop-color="#FFE4E4"/>
<stop offset="1" stop-color="white" stop-opacity="0"/>
</linearGradient>
<linearGradient id="paint13_linear_4_76" x1="2.63249" y1="0" x2="2.63249" y2="1" gradientUnits="userSpaceOnUse">
<stop stop-color="#FFE4E4"/>
<stop offset="1" stop-color="white" stop-opacity="0"/>
</linearGradient>
<linearGradient id="paint14_linear_4_76" x1="2.63249" y1="0" x2="2.63249" y2="1" gradientUnits="userSpaceOnUse">
<stop stop-color="#FFE4E4"/>
<stop offset="1" stop-color="white" stop-opacity="0"/>
</linearGradient>
<linearGradient id="paint15_linear_4_76" x1="2.63249" y1="0" x2="2.63249" y2="1" gradientUnits="userSpaceOnUse">
<stop stop-color="#FFE4E4"/>
<stop offset="1" stop-color="white" stop-opacity="0"/>
</linearGradient>
<linearGradient id="paint16_linear_4_76" x1="2.63249" y1="0" x2="2.63249" y2="1" gradientUnits="userSpaceOnUse">
<stop stop-color="#FFE4E4"/>
<stop offset="1" stop-color="white" stop-opacity="0"/>
</linearGradient>
<linearGradient id="paint17_linear_4_76" x1="2.63249" y1="0" x2="2.63249" y2="1" gradientUnits="userSpaceOnUse">
<stop stop-color="#FFE4E4"/>
<stop offset="1" stop-color="white" stop-opacity="0"/>
</linearGradient>
<linearGradient id="paint18_linear_4_76" x1="2.63249" y1="0" x2="2.63249" y2="1" gradientUnits="userSpaceOnUse">
<stop stop-color="#FFE4E4"/>
<stop offset="1" stop-color="white" stop-opacity="0"/>
</linearGradient>
<linearGradient id="paint19_linear_4_76" x1="2.63249" y1="0" x2="2.63249" y2="1" gradientUnits="userSpaceOnUse">
<stop stop-color="#FFE4E4"/>
<stop offset="1" stop-color="white" stop-opacity="0"/>
</linearGradient>
<linearGradient id="paint20_linear_4_76" x1="2.63249" y1="0" x2="2.63249" y2="1" gradientUnits="userSpaceOnUse">
<stop stop-color="#FFE4E4"/>
<stop offset="1" stop-color="white" stop-opacity="0"/>
</linearGradient>
<linearGradient id="paint21_linear_4_76" x1="2.63249" y1="0" x2="2.63249" y2="1" gradientUnits="userSpaceOnUse">
<stop stop-color="#FFE4E4"/>
<stop offset="1" stop-color="white" stop-opacity="0"/>
</linearGradient>
<linearGradient id="paint22_linear_4_76" x1="2.63249" y1="0" x2="2.63249" y2="1" gradientUnits="userSpaceOnUse">
<stop stop-color="#FFE4E4"/>
<stop offset="1" stop-color="white" stop-opacity="0"/>
</linearGradient>
<linearGradient id="paint23_linear_4_76" x1="2.6325" y1="0" x2="2.6325" y2="1" gradientUnits="userSpaceOnUse">
<stop stop-color="#FFE4E4"/>
<stop offset="1" stop-color="white" stop-opacity="0"/>
</linearGradient>
</defs>
</svg>
