<svg width="207" height="323" viewBox="0 0 207 323" fill="none" xmlns="http://www.w3.org/2000/svg">
<g clip-path="url(#clip0_4_205)">
<path fill-rule="evenodd" clip-rule="evenodd" d="M174.914 2.26107C169.519 -0.235268 161.202 -1.94389 157.518 4.285C154.438 9.4941 157.351 16.0636 159.864 20.8852C161.338 23.715 163.015 26.4264 164.587 29.2015C166.585 32.728 168.17 36.5102 169.385 40.3738C172.223 49.3992 172.964 58.8635 172.045 68.2607C171.64 72.3987 170.251 76.3454 169.694 80.4564C169.554 81.4815 169.449 82.5289 169.435 83.5743C163.984 85.4187 158.474 87.1061 153.034 88.9648C142.21 92.6631 131.093 95.9594 120.944 101.324C112.349 105.869 101.025 113.807 103.279 125.107C104.896 133.21 111.655 138.937 116.698 145.012C122.814 152.38 128.323 160.51 132.059 169.359C134.758 175.75 136.698 183.447 133.618 190.088C130.614 196.567 124.019 199.453 117.158 199.771C107.272 200.231 97.56 197.787 88.0859 195.252C82.0115 193.626 75.9358 191.818 69.654 191.192C65.046 190.735 58.2719 190.39 54.9323 194.359C50.7017 199.386 53.8767 206.265 54.6915 211.855C55.9479 220.473 49.151 227.078 41.372 229.394C34.2541 231.516 26.7761 231.023 19.5806 229.576C13.2078 228.294 4.94586 226.155 2.17627 219.533C-0.12236 214.038 0.950699 205.994 8.19847 205.638C8.84872 205.607 8.89555 204.597 8.22256 204.63C7.05585 204.686 5.88377 204.869 4.8134 205.363C-0.11969 207.636 -0.822113 214.014 0.744644 218.655C2.84793 224.89 8.7283 227.798 14.7184 229.467C21.2958 231.301 28.4687 232.401 35.291 231.625C42.306 230.829 49.5898 228.094 53.5529 221.894C55.406 218.993 56.2328 215.794 55.7993 212.363C55.3725 208.98 54.06 205.729 53.8767 202.312C53.7108 199.255 54.1978 195.657 57.0075 193.875C59.361 192.386 62.2524 192.002 64.9885 191.977C70.6615 191.923 76.2475 193.16 81.7024 194.599C82.1875 194.727 82.6727 194.857 83.1581 194.986L86.0721 195.772C93.8487 197.875 101.679 199.985 109.721 200.632C116.712 201.195 124.749 201.008 130.336 196.138C134.757 192.284 136.56 186.445 136.135 180.696C135.542 172.69 131.611 165.052 127.499 158.306C125.084 154.344 122.429 150.529 119.549 146.889C116.852 143.481 113.871 140.34 111.071 137.022C106.427 131.519 102.125 124.529 105.048 117.19C107.092 112.058 111.574 108.232 116.106 105.3C125.961 98.9258 137.3 95.362 148.339 91.6392C155.367 89.2691 162.435 86.9954 169.456 84.6008C169.487 85.1967 169.55 85.7894 169.668 86.3741C170.057 88.317 170.927 89.8628 171.907 91.5639C174.362 95.8278 176.657 100.211 179.464 104.261C182.257 108.294 184.709 112.457 187.244 116.652C189.377 120.179 192.678 123.63 193.691 127.705C194.365 130.418 192.526 132.36 190.421 133.84C188.252 135.363 185.828 136.563 183.327 137.439C182.402 137.764 181.456 138.085 180.487 138.255C180.237 138.299 179.966 138.354 179.709 138.324C180.26 138.386 180.944 137.818 181.527 137.564C182.543 137.119 184.478 136.405 185.012 135.354C185.49 134.414 185.618 133.373 184.507 132.895C183.871 132.622 183.149 132.997 182.536 133.147C181.761 133.337 180.955 133.46 180.194 133.707C178.848 134.144 177.678 134.9 176.909 136.12C174.828 139.422 175.124 143.912 176.406 147.468C177.071 149.31 177.905 151.069 179.206 152.551C180.675 154.225 182.031 155.624 181.222 157.957C179.348 163.355 174.453 164.703 169.454 165.845L168.168 166.137C166.17 166.591 164.195 167.065 162.43 167.805C161.922 168.018 162.203 168.716 162.669 168.743C166.872 168.973 172.414 169.107 174.984 173.077C176.335 175.165 177.138 177.885 174.662 179.46C173.076 180.469 171.207 180.854 169.605 181.8C166.258 183.78 166.201 187.297 166.894 190.751C167.34 192.974 167.941 195.162 167.856 197.451C167.762 199.968 167.268 202.483 166.344 204.832C164.736 208.917 162.014 212.525 157.716 213.998C153.136 215.569 148.796 214.63 144.208 213.609C134.966 211.553 125.732 209.297 116.437 207.489C107.797 205.809 98.5206 204.646 89.9148 207.154C82.3593 209.354 75.7377 213.92 70.5799 219.817C65.1798 225.99 61.4349 233.183 58.2385 240.686C54.4828 249.503 51.4576 258.602 48.6666 267.763C47.8928 270.302 47.1333 272.849 46.3761 275.397L45.2406 279.221C40.8834 293.88 36.4083 308.528 29.5565 322.248C29.2581 322.846 30.1518 323.317 30.4435 322.733C42.4919 298.605 47.1106 271.793 56.843 246.791C62.9093 231.21 71.5499 214.164 88.6505 208.589C97.7567 205.621 107.493 206.715 116.708 208.579C126.009 210.458 135.243 212.704 144.515 214.718C148.516 215.589 152.533 216.514 156.589 215.393C160.078 214.43 163.139 212.441 165.14 209.386C167.182 206.266 168.489 202.558 168.802 198.838C169.093 195.381 168.057 192.343 167.642 188.966C167.43 187.247 167.382 185.131 168.676 183.781C169.853 182.553 171.432 182.108 172.952 181.455C175.134 180.518 177.67 179.032 177.344 176.269C176.599 169.977 170.505 168.421 165.119 167.909C169.893 166.52 175.317 166.381 179.154 162.988C180.857 161.483 182.234 159.225 182.514 156.934C182.724 155.213 181.793 153.927 180.735 152.689L180.047 151.895C179.515 151.278 179.004 150.652 178.644 149.969C176.938 146.736 175.697 142.42 176.805 138.786C177.372 136.925 178.464 135.226 180.437 134.679C181.074 134.503 181.722 134.377 182.364 134.221C182.787 134.118 183.216 133.951 183.641 133.868C184.258 134.569 184.224 135.067 183.539 135.361C182.524 135.964 181.45 136.43 180.413 136.981C179.747 137.335 178.894 137.834 178.873 138.693C178.853 139.519 180.087 139.34 180.568 139.256C184.827 138.505 189.829 136.194 192.865 133.094C194.25 131.678 195.308 129.906 194.801 127.868C194.172 125.334 192.802 123.142 191.346 121.003L190.547 119.84C190.013 119.067 189.484 118.293 188.99 117.506C186.423 113.416 184.223 109.108 181.389 105.188C178.496 101.186 176.128 96.863 173.688 92.5804C172.511 90.513 171.056 88.5004 170.67 86.1023C170.571 85.4868 170.516 84.8674 170.492 84.2478C171.072 84.0487 171.654 83.8551 172.232 83.6545C180.215 80.8836 188.362 77.6595 195.077 72.4114C202.982 66.2345 207.481 57.1334 206.763 47.0438C206.064 37.2168 201.525 27.8935 195.642 20.1278C190.185 12.925 183.211 6.10043 174.914 2.26107ZM166.251 153.995C165.948 153.995 165.672 154.068 165.423 154.215C165.175 154.362 164.977 154.559 164.83 154.808C164.683 155.056 164.61 155.331 164.61 155.634C164.61 155.932 164.683 156.206 164.83 156.457C164.977 156.708 165.175 156.907 165.423 157.053C165.672 157.2 165.948 157.273 166.251 157.273C166.549 157.273 166.824 157.2 167.075 157.053C167.326 156.907 167.525 156.708 167.672 156.457C167.819 156.206 167.892 155.932 167.892 155.634C167.892 155.331 167.819 155.056 167.672 154.808C167.525 154.559 167.326 154.362 167.075 154.215C166.824 154.068 166.549 153.995 166.251 153.995ZM159.504 3.39485C161.661 1.28495 164.684 0.67034 167.613 1.05973C175.859 2.15598 183.302 8.15814 188.923 13.905C195.962 21.1028 201.889 30.0169 204.492 39.8242C207.05 49.4658 205.831 59.7657 198.993 67.4048C193.865 73.1347 186.801 76.8813 179.769 79.7641C176.713 81.0173 173.609 82.1439 170.484 83.2151C170.507 81.9971 170.646 80.7795 170.862 79.5786C171.58 75.5918 172.784 71.7179 173.128 67.6669C173.901 58.5841 173.3 49.3631 170.554 40.6308C169.355 36.8211 167.895 33.0129 165.955 29.5128C164.455 26.8054 162.803 24.1844 161.342 21.4552C158.689 16.5033 154.52 8.27097 159.504 3.39485Z" fill="#CC4A4A"/>
</g>
<defs>
<clipPath id="clip0_4_205">
<rect width="207" height="323" fill="white"/>
</clipPath>
</defs>
</svg>
